<svg width="70" height="70" viewBox="0 0 70 70" fill="none" xmlns="http://www.w3.org/2000/svg">
<path d="M35 10.9375C32.1716 10.9375 29.7609 12.7837 28.8466 15.3125H13.125V19.6875H16.2006L15.5859 20.7812L6.83594 36.0938L6.5625 36.6406V37.1875C6.5625 43.2031 11.4844 48.125 17.5 48.125C23.5156 48.125 28.4375 43.2031 28.4375 37.1875V36.6406L28.1641 36.0938L19.4141 20.7812L18.7994 19.6875H28.8487C29.1776 20.5991 29.7033 21.4271 30.3883 22.1125C31.0734 22.798 31.9011 23.3241 32.8125 23.6534V52.5H24.0625V56.875H45.9375V52.5H37.1875V23.6513C38.0976 23.3197 38.9242 22.7932 39.6093 22.1084C40.2944 21.4237 40.8214 20.5974 41.1534 19.6875H51.2006L50.5859 20.7812L41.8359 36.0938L41.5625 36.6406V37.1875C41.5625 43.2031 46.4844 48.125 52.5 48.125C58.5156 48.125 63.4375 43.2031 63.4375 37.1875V36.6406L63.1641 36.0938L54.4141 20.7812L53.7994 19.6875H56.875V15.3125H41.1513C40.2391 12.7837 37.8306 10.9375 35 10.9375ZM35 15.3125C36.2316 15.3125 37.1875 16.2706 37.1875 17.5C37.1875 18.7316 36.2294 19.6875 35 19.6875C33.7684 19.6875 32.8125 18.7294 32.8125 17.5C32.8125 16.2684 33.7706 15.3125 35 15.3125ZM17.5 26.3178L22.4897 35H12.5125L17.5 26.3178ZM52.5 26.3178L57.4897 35H47.5125L52.5 26.3178ZM11.4844 39.375H23.5156C22.6362 41.9125 20.3547 43.75 17.5 43.75C14.6453 43.75 12.3638 41.9125 11.4844 39.375ZM46.4844 39.375H58.5156C57.6362 41.9125 55.3547 43.75 52.5 43.75C49.6453 43.75 47.3638 41.9125 46.4844 39.375Z" fill="black"/>
</svg>
