<svg width="128" height="128" viewBox="0 0 128 128" fill="none" xmlns="http://www.w3.org/2000/svg">
<path d="M60.99 15.4C61.5402 16.1619 61.828 17.082 61.8099 18.0217C61.7919 18.9614 61.4691 19.8697 60.89 20.61C57.56 24.87 50.5 33.4 43.48 38.58C34.82 44.98 26.93 47.85 22.91 49.02C21.13 49.54 19.23 48.85 18.16 47.34C15.52 43.63 11.32 35.68 12.97 24.43C15.3 8.43 33.63 0.71 45.51 4.55C57.39 8.39 60.99 15.4 60.99 15.4Z" fill="#FFC107"/>
<path d="M24.5 46.03C23.33 46.52 22.27 45.15 23.02 44.14C25.22 41.2 29.49 36.38 37.28 30.1C45.73 23.29 51.72 20.88 54.99 20.03C56.12 19.74 56.99 21.01 56.31 21.96C54.1 25.06 49.45 30.72 41.84 36.15C34.46 41.42 28.2 44.47 24.5 46.03V46.03Z" fill="url(#paint0_radial_48_25)"/>
<path d="M32.73 8.74C33.19 10.72 35.69 11.41 38.11 11C40.73 10.56 44.03 10.19 43.72 7.53C43.4 4.78 39.02 4.89 37.4 4.98C35.03 5.12 32.32 6.99 32.73 8.74V8.74Z" fill="#FFEE58"/>
<path d="M84.25 3.72C96.21 0.500001 113.77 4.62 117.29 25.34C118.63 33.21 115.5 40.18 113.31 43.9C112.23 45.74 110.12 46.72 108.03 46.3C103.95 45.48 96.35 43.19 86.17 36.83C80.51 33.3 72.81 26.42 68.45 22.37C66.48 20.54 66.29 17.47 68.06 15.44C71.52 11.47 77.61 5.51 84.25 3.72V3.72Z" fill="#FFC107"/>
<path d="M73.42 22.5C72.79 21.87 73.39 20.81 74.26 21.03C78.08 21.99 85.13 24.14 91.39 28.05C97.81 32.07 104.3 38.18 107.59 41.45C108.24 42.09 107.6 43.17 106.72 42.91C102.7 41.74 95.31 39.14 88 34.21C80.57 29.2 75.84 24.91 73.42 22.5V22.5Z" fill="url(#paint1_radial_48_25)"/>
<path d="M83.59 11.84C79.64 13.08 78.53 10.29 80.64 8.17C82.16 6.64 88.57 3.91 94.13 5.07C97.8 5.84 98.95 11.13 93.78 11.06C90.26 11.01 88.43 10.32 83.59 11.84Z" fill="#FFEE58"/>
<path d="M110.02 120.05C97.57 112.22 89.23 96.97 87.71 79.25C86.34 63.24 90.22 47.03 93.34 34.01L99.74 36.92C96.76 49.38 94.42 63.84 95.68 78.56C96.98 93.79 103.94 106.77 114.28 113.27L110.02 120.05V120.05Z" fill="#03A9F4"/>
<path d="M60.58 117.29L57.28 110C61.19 108.23 63.45 103.1 62.11 99.03C61.46 97.04 60.06 95.14 58.59 93.13C57.39 91.49 56.14 89.79 55.12 87.84C52.46 82.74 51.83 76.64 53.41 71.11C54.21 68.32 55.48 65.85 56.72 63.46C58.12 60.76 59.43 58.22 59.77 55.66C60.08 53.29 59.52 50.78 58.22 48.77C57.04 46.96 55.22 45.4 53.29 43.76C51.83 42.51 50.31 41.22 48.92 39.7C45.63 36.1 44.35 31.81 44.37 27.02L49.94 24.91C49.94 24.91 50.95 30.35 52.31 32.52C53.74 34.79 55.87 36.33 57.89 38.05C60.17 40 63.12 41.63 64.93 44.43C67.25 48.01 68.26 52.49 67.7 56.73C67.18 60.67 65.47 63.97 63.82 67.16C62.72 69.29 61.68 71.3 61.1 73.33C60.08 76.91 60.48 80.86 62.21 84.16C62.95 85.58 63.96 86.96 65.04 88.43C66.82 90.86 68.66 93.36 69.71 96.56C72.34 104.51 68.24 113.83 60.58 117.29V117.29Z" fill="#03A9F4"/>
<path d="M10.51 123.31L5.78 116.86C36.11 94.64 39.34 62.1 37.2 45.52L43.24 43.67C45.61 62 44.15 98.67 10.51 123.31V123.31Z" fill="#F48FB1"/>
<path d="M94.92 73.36L95.45 73.77C95.39 70.48 95.55 67.17 95.86 63.89C93.18 61.66 90.68 59.27 88.88 56.47C88.83 56.39 88.79 56.31 88.74 56.23C88.2 59.83 87.78 63.51 87.58 67.22C89.97 69.51 92.53 71.51 94.92 73.36V73.36Z" fill="#0076C6"/>
<path d="M114.93 95.35L107.67 91.98C109.52 88 107.97 83.19 105.91 80.02C103.23 75.9 99.01 72.62 94.92 69.45C90.53 66.05 85.56 62.2 82.14 56.87C75.85 47.08 76.96 34.89 84.05 25.66L89.86 28.91C84.76 35.56 84.35 45.49 88.87 52.54C91.54 56.71 95.75 59.96 99.82 63.12C104.22 66.53 109.2 70.39 112.62 75.65C116.74 82 117.63 89.55 114.93 95.35Z" fill="#F44336"/>
<path d="M8.99001 92.59C7.49001 84.11 13.69 79.72 17.02 77.36C17.42 77.08 17.91 76.73 18.25 76.46C18.22 75.75 17.74 74.86 16.84 73.35C15.36 70.86 13.34 67.44 14.89 63.09C16.24 59.31 20.16 58.06 22.76 56.6C24.98 55.35 26.59 53.83 27.39 51.29C28.32 48.33 27.67 40.89 27.67 40.89L32.55 38.04C32.55 38.04 34.09 45.15 34.09 48.77C34.09 59.03 28.4 61.65 26 63C24.34 63.93 22.77 64.81 22.43 65.77C22.18 66.47 22.53 67.26 23.73 69.28C25.17 71.7 27.13 75.03 25.85 79.28C25.23 81.35 23.49 82.59 21.65 83.89C18.39 86.2 16.29 87.96 16.87 91.2L8.99001 92.59V92.59Z" fill="#F44336"/>
<path d="M75.05 82.26C71.49 81.41 69.06 79.29 66.88 77.49L71.98 71.32C71.98 71.32 73.79 74.01 77.76 75.25L75.05 82.26V82.26Z" fill="#F44336"/>
<path d="M68.63 37.24L62.72 33.77L67 27L72.92 30.47L68.63 37.24Z" fill="#F44336"/>
<path d="M83.97 113.56L76 108.61L82.15 101.77L88.3 107.61L83.97 113.56Z" fill="#F44336"/>
<path d="M109.207 60.167L113.897 53.686L120.857 58.722L116.166 65.203L109.207 60.167Z" fill="#FB8C00"/>
<path d="M52.89 57.06L45.83 52.18L49.5 47.31L56.55 52.19L52.89 57.06Z" fill="#F44336"/>
<path d="M61.43 65.59C61.43 65.59 62.79 65.54 64.48 65.87C65.7 63.47 66.86 60.97 67.46 58.16C65.38 57.69 63.71 57.92 63.71 57.92L61.43 65.59V65.59Z" fill="#0076C6"/>
<path d="M70.92 66.53C68.13 64.15 63.47 64.32 63.47 64.32L65.74 56.65C65.74 56.65 70.9 55.93 74.38 59.56L70.92 66.53Z" fill="#FB8C00"/>
<path d="M4.64101 98.305L11.897 97.862L12.384 105.847L5.12801 106.29L4.64101 98.305Z" fill="#FB8C00"/>
<path d="M43.17 96.91L38.56 90.37C40.6 88.93 42.47 87.22 44.09 85.31L50.19 90.49C48.127 92.9145 45.7687 95.0712 43.17 96.91Z" fill="#FB8C00"/>
<path d="M43.23 115.39C40.83 113.41 38.29 111.57 35.67 109.91L39.95 103.15C42.85 104.98 45.66 107.02 48.32 109.21L43.23 115.39V115.39Z" fill="#F44336"/>
<path d="M87.85 80.09C88.13 83.4 88.52 85.78 89.26 88.88L94.53 84.65L89.4 78.24L87.85 80.09V80.09Z" fill="#0076C6"/>
<path d="M79.37 85.194L87.43 78.733L92.434 84.974L84.374 91.436L79.37 85.194Z" fill="#FFC107"/>
<path d="M76.62 125.26C75.22 122.69 73.65 120.18 71.95 117.8L78.46 113.15C80.3567 115.803 82.0867 118.572 83.64 121.44L76.62 125.26V125.26Z" fill="#FB8C00"/>
<defs>
<radialGradient id="paint0_radial_48_25" cx="0" cy="0" r="1" gradientUnits="userSpaceOnUse" gradientTransform="translate(39.662 33.066) scale(15.102)">
<stop offset="0.376" stop-color="#AF5700"/>
<stop offset="1" stop-color="#8F4700"/>
</radialGradient>
<radialGradient id="paint1_radial_48_25" cx="0" cy="0" r="1" gradientUnits="userSpaceOnUse" gradientTransform="translate(90.501 31.97) scale(21.224)">
<stop offset="0.376" stop-color="#AF5700"/>
<stop offset="1" stop-color="#8F4700"/>
</radialGradient>
</defs>
</svg>
