<svg width="256" height="256" viewBox="0 0 256 256" fill="none" xmlns="http://www.w3.org/2000/svg">
<path d="M109.1 52.6C107.429 50.9501 105.369 49.7471 103.111 49.102C100.852 48.4568 98.4682 48.3901 96.1775 48.908C93.8867 49.4259 91.763 50.5118 90.002 52.0657C88.2409 53.6196 86.8991 55.5915 86.1 57.8L32.2 205.8C31.4295 207.911 31.1785 210.177 31.4683 212.405C31.7581 214.634 32.5801 216.76 33.865 218.604C35.1498 220.448 36.8596 221.955 38.85 222.999C40.8403 224.043 43.0527 224.592 45.3 224.6C46.968 224.627 48.6274 224.356 50.2 223.8L198.2 169.9C200.408 169.101 202.38 167.759 203.934 165.998C205.488 164.237 206.574 162.113 207.092 159.823C207.61 157.532 207.543 155.148 206.898 152.889C206.253 150.631 205.05 148.571 203.4 146.9L109.1 52.6ZM103.9 191.5L64.5 152.1L79.2 111.7L144.3 176.8L103.9 191.5ZM46.1 212.5C45.7393 212.604 45.3572 212.61 44.9936 212.516C44.63 212.422 44.2982 212.233 44.0327 211.967C43.7672 211.702 43.5778 211.37 43.4841 211.006C43.3904 210.643 43.3959 210.261 43.5 209.9L60 164.5L91.5 196L46.1 212.5ZM195.4 157.2C195.316 157.534 195.155 157.844 194.929 158.105C194.703 158.366 194.419 158.569 194.1 158.7L156.7 172.3L83.7 99.3L97.3 61.9C97.4307 61.5809 97.6345 61.297 97.8951 61.0712C98.1556 60.8454 98.4656 60.684 98.8 60.6C99.1181 60.5305 99.4483 60.5398 99.762 60.6269C100.076 60.7141 100.363 60.8764 100.6 61.1L194.9 155.4C195.124 155.637 195.286 155.924 195.373 156.238C195.46 156.552 195.469 156.882 195.4 157.2V157.2ZM162 72C162.139 66.8994 163.366 61.8875 165.6 57.3C170.6 47.4 179.9 42 192 42C199.5 42 204.5 39.3 207.5 33.6C208.982 30.6049 209.833 27.3374 210 24C210 22.4087 210.632 20.8826 211.757 19.7574C212.883 18.6321 214.409 18 216 18C217.591 18 219.117 18.6321 220.243 19.7574C221.368 20.8826 222 22.4087 222 24C222 34.4 215.7 54 192 54C184.5 54 179.5 56.7 176.5 62.4C175.018 65.3951 174.167 68.6626 174 72C174 73.5913 173.368 75.1174 172.243 76.2426C171.117 77.3679 169.591 78 168 78C166.409 78 164.883 77.3679 163.757 76.2426C162.632 75.1174 162 73.5913 162 72ZM138 40V16C138 14.4087 138.632 12.8826 139.757 11.7574C140.883 10.6321 142.409 10 144 10C145.591 10 147.117 10.6321 148.243 11.7574C149.368 12.8826 150 14.4087 150 16V40C150 41.5913 149.368 43.1174 148.243 44.2426C147.117 45.3679 145.591 46 144 46C142.409 46 140.883 45.3679 139.757 44.2426C138.632 43.1174 138 41.5913 138 40ZM236.2 123.8C237.314 124.914 237.94 126.425 237.94 128C237.94 129.575 237.314 131.086 236.2 132.2C235.086 133.314 233.575 133.94 232 133.94C230.425 133.94 228.914 133.314 227.8 132.2L211.8 116.2C210.686 115.086 210.06 113.575 210.06 112C210.06 110.425 210.686 108.914 211.8 107.8C212.914 106.686 214.425 106.06 216 106.06C217.575 106.06 219.086 106.686 220.2 107.8L236.2 123.8ZM241.9 77.7L217.9 85.7C217.286 85.8967 216.645 85.9978 216 86C214.74 86.0018 213.511 85.6068 212.488 84.8708C211.465 84.1349 210.699 83.0955 210.3 81.9C209.821 80.3878 209.95 78.7484 210.659 77.3295C211.369 75.9107 212.603 74.824 214.1 74.3L238.1 66.3C239.612 65.7961 241.262 65.9134 242.687 66.626C244.112 67.3386 245.196 68.5883 245.7 70.1C246.204 71.6117 246.087 73.2617 245.374 74.687C244.661 76.1123 243.412 77.1961 241.9 77.7V77.7Z" fill="black"/>
</svg>
