<svg width="72" height="72" viewBox="0 0 72 72" fill="none" xmlns="http://www.w3.org/2000/svg">
<path d="M31.843 18.778C28.317 11.845 19.913 8.89401 12.808 12.208C5.703 15.522 2.56 23.854 5.606 31.012L31.843 18.777V18.778Z" fill="#F1B31C"/>
<path d="M13.204 12.156C16.334 10.696 19.714 10.456 22.82 11.231C21.936 11.453 21.06 11.756 20.204 12.156C14.028 15.036 10.853 21.708 12.126 28.106L6.002 30.96C2.957 23.802 6.099 15.468 13.204 12.155V12.156Z" fill="#FCEA2B"/>
<path d="M66.66 30.961C69.705 23.803 66.563 15.469 59.458 12.156C52.353 8.843 43.95 11.793 40.423 18.726L66.66 30.962V30.961Z" fill="#F1B31C"/>
<path d="M59.458 12.156C56.328 10.696 52.948 10.456 49.843 11.231C50.726 11.453 51.602 11.756 52.458 12.156C58.634 15.036 61.81 21.708 60.537 28.106L66.66 30.961C69.705 23.803 66.563 15.469 59.458 12.156V12.156Z" fill="#FCEA2B"/>
<path d="M19.295 33.429C20.3996 33.429 21.295 32.5466 21.295 31.458C21.295 30.3694 20.3996 29.487 19.295 29.487C18.1904 29.487 17.295 30.3694 17.295 31.458C17.295 32.5466 18.1904 33.429 19.295 33.429Z" fill="#EA5A47"/>
<path d="M44.295 35.429C45.3996 35.429 46.295 34.5466 46.295 33.458C46.295 32.3694 45.3996 31.487 44.295 31.487C43.1904 31.487 42.295 32.3694 42.295 33.458C42.295 34.5466 43.1904 35.429 44.295 35.429Z" fill="#8967AA"/>
<path d="M40.295 57.429C41.3996 57.429 42.295 56.5466 42.295 55.458C42.295 54.3694 41.3996 53.487 40.295 53.487C39.1904 53.487 38.295 54.3694 38.295 55.458C38.295 56.5466 39.1904 57.429 40.295 57.429Z" fill="#FCEA2B"/>
<path d="M31.843 18.778C28.317 11.845 19.913 8.89401 12.808 12.208C5.703 15.522 2.56 23.854 5.606 31.012L31.843 18.777V18.778Z" stroke="black" stroke-width="2" stroke-miterlimit="10" stroke-linecap="round" stroke-linejoin="round"/>
<path d="M66.66 30.961C69.705 23.803 66.563 15.469 59.458 12.156C52.353 8.843 43.95 11.793 40.423 18.726L66.66 30.962V30.961Z" stroke="black" stroke-width="2" stroke-miterlimit="10" stroke-linecap="round" stroke-linejoin="round"/>
<path d="M36.361 30.342C35.925 30.599 35.521 30.93 35.167 31.334C33.333 33.428 33.535 36.695 35.619 38.631" stroke="black" stroke-width="2" stroke-miterlimit="10" stroke-linecap="round" stroke-linejoin="round"/>
<path d="M35.467 38.513C35.875 38.812 36.244 39.182 36.556 39.619C38.171 41.886 37.643 45.117 35.376 46.834" stroke="black" stroke-width="2" stroke-miterlimit="10" stroke-linecap="round" stroke-linejoin="round"/>
<path d="M20.956 42.953C20.461 43.058 19.972 43.243 19.508 43.513C17.103 44.915 16.254 48.076 17.614 50.575" stroke="black" stroke-width="2" stroke-miterlimit="10" stroke-linecap="round" stroke-linejoin="round"/>
<path d="M17.507 50.414C17.799 50.828 18.031 51.296 18.187 51.809C18.997 54.473 17.468 57.367 14.772 58.274" stroke="black" stroke-width="2" stroke-miterlimit="10" stroke-linecap="round" stroke-linejoin="round"/>
<path d="M53.493 38.62C53.97 38.789 54.43 39.036 54.854 39.365C57.055 41.07 57.48 44.316 55.804 46.615" stroke="black" stroke-width="2" stroke-miterlimit="10" stroke-linecap="round" stroke-linejoin="round"/>
<path d="M55.931 46.469C55.5781 46.8518 55.2887 47.2887 55.074 47.763C53.921 50.297 55.056 53.367 57.61 54.62" stroke="black" stroke-width="2" stroke-miterlimit="10" stroke-linecap="round" stroke-linejoin="round"/>
</svg>
