<svg width="70" height="70" viewBox="0 0 70 70" fill="none" xmlns="http://www.w3.org/2000/svg">
<path fill-rule="evenodd" clip-rule="evenodd" d="M35 2.91666C17.2813 2.91666 2.91669 17.2812 2.91669 35C2.91669 52.7187 17.2813 67.0833 35 67.0833C52.7188 67.0833 67.0834 52.7187 67.0834 35C67.0834 17.2812 52.7188 2.91666 35 2.91666ZM33.5417 17.5C32.7681 17.5 32.0263 17.8073 31.4793 18.3543C30.9323 18.9012 30.625 19.6431 30.625 20.4167C30.625 21.1902 30.9323 21.9321 31.4793 22.479C32.0263 23.026 32.7681 23.3333 33.5417 23.3333H35C35.7736 23.3333 36.5154 23.026 37.0624 22.479C37.6094 21.9321 37.9167 21.1902 37.9167 20.4167C37.9167 19.6431 37.6094 18.9012 37.0624 18.3543C36.5154 17.8073 35.7736 17.5 35 17.5H33.5417ZM29.1667 29.1667C28.3931 29.1667 27.6513 29.4739 27.1043 30.0209C26.5573 30.5679 26.25 31.3098 26.25 32.0833C26.25 32.8569 26.5573 33.5987 27.1043 34.1457C27.6513 34.6927 28.3931 35 29.1667 35H32.0834V43.75H29.1667C28.3931 43.75 27.6513 44.0573 27.1043 44.6043C26.5573 45.1512 26.25 45.8931 26.25 46.6667C26.25 47.4402 26.5573 48.1821 27.1043 48.7291C27.6513 49.276 28.3931 49.5833 29.1667 49.5833H40.8334C41.6069 49.5833 42.3488 49.276 42.8957 48.7291C43.4427 48.1821 43.75 47.4402 43.75 46.6667C43.75 45.8931 43.4427 45.1512 42.8957 44.6043C42.3488 44.0573 41.6069 43.75 40.8334 43.75H37.9167V32.0833C37.9167 31.3098 37.6094 30.5679 37.0624 30.0209C36.5154 29.4739 35.7736 29.1667 35 29.1667H29.1667Z" fill="black"/>
</svg>
