<svg width="70" height="70" viewBox="0 0 70 70" fill="none" xmlns="http://www.w3.org/2000/svg">
<path d="M5.97192 14.5906L34.6719 4.375V65.625L10.4344 52.2375L5.97192 14.5906Z" fill="#DE3641"/>
<path d="M34.6719 4.375L64.0281 14.4156L59.2375 52.0625L34.6719 65.625V4.375Z" fill="#B13138"/>
<path d="M34.672 11.2438L53.3313 51.1219H46.9657L42.9845 42.0219H34.672V36.5969H40.7313L34.672 24.0625L29.5751 36.5969H34.672V42.0219H27.0813L23.5157 51.1219H16.647L34.672 11.2438Z" fill="white"/>
<path d="M34.2124 61.0969L37.8655 58.9094C38.055 59.541 38.4291 60.1014 38.9399 60.5186C39.4506 60.9357 40.0744 61.1905 40.7312 61.25C42.1968 61.25 43.1374 60.6812 43.1374 58.4281V43.1156H47.5124V58.4281C47.6196 59.3359 47.5209 60.2562 47.2234 61.1206C46.9259 61.9849 46.4374 62.7711 45.7942 63.4206C45.1509 64.0702 44.3696 64.5663 43.5082 64.8722C42.6468 65.1781 41.7275 65.2859 40.8187 65.1875C39.4173 65.2627 38.0259 64.9122 36.8274 64.1821C35.6288 63.4521 34.6791 62.3766 34.103 61.0969H34.2124ZM50.0499 60.6156L53.703 58.4281C54.1068 59.2432 54.7305 59.9291 55.5036 60.4084C56.2767 60.8877 57.1684 61.1414 58.078 61.1406C58.4069 61.2228 58.7488 61.2394 59.0842 61.1895C59.4195 61.1396 59.7417 61.024 60.0324 60.8495C60.3231 60.675 60.5766 60.445 60.7783 60.1725C60.9801 59.9001 61.1262 59.5905 61.2083 59.2616C61.2244 59.1959 61.2382 59.1296 61.2499 59.0625C61.2499 57.5313 60.0249 56.875 57.9905 56.0875L56.8749 55.6063C53.6374 54.2281 51.4937 52.5 51.4937 48.8469C51.4988 48.0594 51.6591 47.2806 51.9653 46.5551C52.2716 45.8296 52.7178 45.1716 53.2785 44.6186C53.8392 44.0656 54.5034 43.6286 55.2331 43.3324C55.9628 43.0362 56.7437 42.8867 57.5312 42.8925C57.7076 42.8925 57.8841 42.9013 58.0605 42.9188C59.3577 42.8184 60.6554 43.1058 61.7888 43.7446C62.9222 44.3834 63.8402 45.3446 64.4262 46.5063L60.948 48.6938C60.7205 48.1167 60.322 47.6229 59.8059 47.2789C59.2897 46.9348 58.6807 46.7568 58.0605 46.7688C57.7872 46.7347 57.5098 46.759 57.2467 46.8401C56.9835 46.9212 56.7405 47.0572 56.5337 47.2392C56.327 47.4211 56.1612 47.6448 56.0473 47.8956C55.9334 48.1463 55.874 48.4184 55.873 48.6938C55.873 50.0281 56.7043 50.575 58.6293 51.4063L59.7449 51.8875C63.4374 53.5281 65.6249 55.1906 65.6249 58.9531C65.6249 62.7156 62.453 65.1875 58.2093 65.1875C56.5531 65.2944 54.9013 64.9195 53.4534 64.1083C52.0056 63.297 50.8235 62.084 50.0499 60.6156" fill="#F7DF1E"/>
<path d="M5.97192 14.5906L34.6719 4.375V65.625L10.4344 52.2375L5.97192 14.5906Z" fill="#DE3641"/>
<path d="M34.6719 4.375L64.0281 14.4156L59.2375 52.0625L34.6719 65.625V4.375Z" fill="#B13138"/>
<path d="M34.672 11.2438L53.3313 51.1219H46.9657L42.9845 42.0219H34.672V36.5969H40.7313L34.672 24.0625L29.5751 36.5969H34.672V42.0219H27.0813L23.5157 51.1219H16.647L34.672 11.2438Z" fill="white"/>
<path d="M34.2124 61.0969L37.8655 58.9094C38.055 59.541 38.4291 60.1014 38.9399 60.5186C39.4506 60.9357 40.0744 61.1905 40.7312 61.25C42.1968 61.25 43.1374 60.6812 43.1374 58.4281V43.1156H47.5124V58.4281C47.6196 59.3359 47.5209 60.2562 47.2234 61.1206C46.9259 61.9849 46.4374 62.7711 45.7942 63.4206C45.1509 64.0702 44.3696 64.5663 43.5082 64.8722C42.6468 65.1781 41.7275 65.2859 40.8187 65.1875C39.4173 65.2627 38.0259 64.9122 36.8274 64.1821C35.6288 63.4521 34.6791 62.3766 34.103 61.0969H34.2124ZM50.0499 60.6156L53.703 58.4281C54.1068 59.2432 54.7305 59.9291 55.5036 60.4084C56.2767 60.8877 57.1684 61.1414 58.078 61.1406C58.4069 61.2228 58.7488 61.2394 59.0842 61.1895C59.4195 61.1396 59.7417 61.024 60.0324 60.8495C60.3231 60.675 60.5766 60.445 60.7783 60.1725C60.9801 59.9001 61.1262 59.5905 61.2083 59.2616C61.2244 59.1959 61.2382 59.1296 61.2499 59.0625C61.2499 57.5313 60.0249 56.875 57.9905 56.0875L56.8749 55.6063C53.6374 54.2281 51.4937 52.5 51.4937 48.8469C51.4988 48.0594 51.6591 47.2806 51.9653 46.5551C52.2716 45.8296 52.7178 45.1716 53.2785 44.6186C53.8392 44.0656 54.5034 43.6286 55.2331 43.3324C55.9628 43.0362 56.7437 42.8867 57.5312 42.8925C57.7076 42.8925 57.8841 42.9013 58.0605 42.9188C59.3577 42.8184 60.6554 43.1058 61.7888 43.7446C62.9222 44.3834 63.8402 45.3446 64.4262 46.5063L60.948 48.6938C60.7205 48.1167 60.322 47.6229 59.8059 47.2789C59.2897 46.9348 58.6807 46.7568 58.0605 46.7688C57.7872 46.7347 57.5098 46.759 57.2467 46.8401C56.9835 46.9212 56.7405 47.0572 56.5337 47.2392C56.327 47.4211 56.1612 47.6448 56.0473 47.8956C55.9334 48.1463 55.874 48.4184 55.873 48.6938C55.873 50.0281 56.7043 50.575 58.6293 51.4063L59.7449 51.8875C63.4374 53.5281 65.6249 55.1906 65.6249 58.9531C65.6249 62.7156 62.453 65.1875 58.2093 65.1875C56.5531 65.2944 54.9013 64.9195 53.4534 64.1083C52.0056 63.297 50.8235 62.084 50.0499 60.6156" fill="#F7DF1E"/>
</svg>
