<svg width="70" height="80" viewBox="0 0 70 80" fill="none" xmlns="http://www.w3.org/2000/svg">
<path d="M69.8821 23.2487C69.8816 21.9232 69.5991 20.752 69.0279 19.7468C68.4668 18.7584 67.6266 17.9299 66.4995 17.2749C57.1957 11.8911 47.883 6.52373 38.5823 1.13444C36.0749 -0.318325 33.6438 -0.265362 31.1549 1.20826C27.4518 3.40003 8.91133 14.0603 3.38652 17.2718C1.11125 18.5937 0.00410156 20.6167 0.00355469 23.2462C0 34.0733 0.00355469 44.9002 0 55.7276C0.000546875 57.024 0.270977 58.1724 0.817031 59.1625C1.3784 60.1809 2.23043 61.0321 3.38352 61.702C8.90859 64.9135 27.4515 75.573 31.1538 77.7653C33.6437 79.2397 36.0749 79.2924 38.5831 77.8391C47.8841 72.4495 57.1974 67.0825 66.5025 61.6987C67.6555 61.0291 68.5076 60.1773 69.0689 59.1598C69.6142 58.1697 69.8852 57.0212 69.8857 55.7246C69.8857 55.7246 69.8857 34.0761 69.8821 23.2487" fill="#5C8DBC"/>
<path d="M35.0499 39.3814L0.817139 59.1625C1.37851 60.1809 2.23054 61.0321 3.38362 61.702C8.9087 64.9135 27.4516 75.573 31.1539 77.7653C33.6439 79.2397 36.075 79.2924 38.5832 77.8391C47.8842 72.4495 57.1975 67.0825 66.5026 61.6987C67.6556 61.0291 68.5077 60.1773 69.069 59.1598L35.0499 39.3814" fill="#1A4674"/>
<path d="M24.9104 45.2408C26.9024 48.7308 30.6471 51.0848 34.9428 51.0848C39.265 51.0848 43.0311 48.7009 45.013 45.1735L35.0497 39.3814L24.9104 45.2408" fill="#1A4674"/>
<path d="M69.8822 23.2487C69.8816 21.9232 69.5992 20.752 69.028 19.7468L35.0498 39.3814L69.069 59.1597C69.6142 58.1696 69.8852 57.0212 69.8857 55.7246C69.8857 55.7246 69.8857 34.0761 69.8822 23.2487" fill="#1B598E"/>
<path d="M68.0115 40.7952H65.3531V43.4636H62.6942V40.7952H60.0361V38.1276H62.6942V35.4597H65.3531V38.1276H68.0115V40.7952Z" fill="white"/>
<path d="M58.3115 40.7952H55.6534V43.4636H52.995V40.7952H50.3367V38.1276H52.995V35.4597H55.6534V38.1276H58.3115V40.7952Z" fill="white"/>
<path d="M45.013 45.1735C43.0312 48.7009 39.2651 51.0847 34.9429 51.0847C30.6472 51.0847 26.9024 48.7308 24.9104 45.2408C23.9098 43.4895 23.3842 41.5055 23.3863 39.4868C23.3863 33.0816 28.5606 27.8891 34.9429 27.8891C39.211 27.8891 42.936 30.2136 44.9378 33.668L55.0389 27.8306C51.024 20.8752 43.5283 16.1958 34.9429 16.1958C22.1252 16.1958 11.7349 26.6237 11.7349 39.4868C11.7349 43.7068 12.8535 47.6641 14.8086 51.0776C18.8133 58.0698 26.3304 62.778 34.9429 62.778C43.5712 62.778 51.1 58.0508 55.099 51.0381L45.013 45.1735Z" fill="white"/>
</svg>
