<svg width="70" height="70" viewBox="0 0 70 70" fill="none" xmlns="http://www.w3.org/2000/svg">
<path d="M50.3126 42.4769C48.6652 45.4082 46.0951 47.7129 43.0022 49.0322C39.9093 50.3516 36.467 50.6116 33.211 49.772C29.955 48.9323 27.0678 47.0399 24.9987 44.3894C22.9296 41.7388 21.7946 38.4787 21.7703 35.1162C21.746 31.7537 22.8337 28.4775 24.8643 25.7974C26.8949 23.1172 29.7544 21.1833 32.998 20.2966C36.2415 19.41 39.6872 19.6202 42.7988 20.8948C45.9105 22.1693 48.5136 24.4365 50.2032 27.3437L63.5316 19.6678C60.1551 13.8265 54.944 9.26371 48.7079 6.68821C42.4718 4.1127 35.5598 3.66864 29.0454 5.425C22.531 7.18137 16.7789 11.0398 12.6827 16.4011C8.58642 21.7623 6.37527 28.3262 6.39268 35.0732C6.41009 41.8202 8.65509 48.3726 12.779 53.7126C16.9028 59.0526 22.6747 62.8813 29.1981 64.604C35.7215 66.3268 42.6311 65.847 48.8539 63.2394C55.0766 60.6317 60.264 56.0421 63.6104 50.1834L50.3126 42.4769Z" fill="#005F91"/>
</svg>
