<svg width="70" height="79" viewBox="0 0 70 79" fill="none" xmlns="http://www.w3.org/2000/svg">
<path d="M69.8821 23.1657C69.8816 21.8408 69.5991 20.6701 69.0279 19.6656C68.4668 18.6773 67.6266 17.8491 66.4995 17.1944C57.1957 11.8128 47.883 6.44763 38.5823 1.06054C36.0749 -0.391631 33.6438 -0.338416 31.1549 1.13461C27.4518 3.32521 8.91133 13.9812 3.38652 17.1914C1.11125 18.513 0.00410156 20.5351 0.00355469 23.1633C0 33.986 0.00355469 44.8087 0 55.6314C0 56.9273 0.270977 58.0755 0.817031 59.0649C1.3784 60.0829 2.23043 60.9338 3.38352 61.6034C8.90859 64.8136 27.4515 75.4687 31.1538 77.6601C33.6437 79.1339 36.0749 79.1866 38.5831 77.7342C47.8841 72.3468 57.1974 66.9817 66.5025 61.6001C67.6555 60.9308 68.5076 60.0793 69.0689 59.0622C69.6142 58.0725 69.8857 56.9245 69.8857 55.6284C69.8857 55.6284 69.8857 33.9887 69.8821 23.1657Z" fill="#A179DC"/>
<path d="M35.0499 39.2918L0.817139 59.0649C1.37851 60.0828 2.23054 60.9337 3.38362 61.6033C8.9087 64.8135 27.4516 75.4686 31.1539 77.66C33.6439 79.1339 36.075 79.1865 38.5832 77.7341C47.8842 72.3467 57.1975 66.9816 66.5026 61.6C67.6556 60.9307 68.5077 60.0792 69.069 59.0621L35.0499 39.2918" fill="#280068"/>
<path d="M69.8822 23.1657C69.8816 21.8408 69.5992 20.67 69.028 19.6655L35.0498 39.2921L69.069 59.0621C69.6142 58.0724 69.8852 56.9244 69.8857 55.6283C69.8857 55.6283 69.8857 33.9887 69.8822 23.1657" fill="#390091"/>
<path d="M55.2049 31.9001V35.5961H58.8892V31.9001H60.7313V35.5961H64.4156V37.4441H60.7313V41.1398H64.4156V42.9878H60.7313V46.6838H58.8892V42.9878H55.2049V46.6838H53.3627V42.9878H49.6787V41.1398H53.3627V37.4441H49.6787V35.5961H53.3627V31.9001H55.2049ZM58.8892 37.4438H55.2049V41.1398H58.8892V37.4441V37.4438Z" fill="white"/>
<path d="M35.125 13.3384C44.7347 13.3384 53.1246 18.5738 57.6186 26.3558L57.5748 26.2809L46.2682 32.8116C44.0407 29.0281 39.9572 26.4746 35.2724 26.4219L35.1248 26.4211C27.9812 26.4211 22.1898 32.2309 22.1898 39.3971C22.1875 41.6558 22.7757 43.8757 23.8958 45.8351C26.1254 49.7398 30.3169 52.3734 35.125 52.3734C39.963 52.3734 44.1783 49.7064 46.3964 45.7599L46.3425 45.8546L57.632 52.4154C53.1872 60.1316 44.9122 65.3508 35.4143 65.4548L35.125 65.4564C25.485 65.4564 17.0713 60.1887 12.5886 52.3655C10.4003 48.5463 9.14819 44.1187 9.14819 39.3971C9.14819 25.0054 20.778 13.3381 35.1248 13.3381L35.125 13.3384Z" fill="white"/>
</svg>
