<svg width="70" height="70" viewBox="0 0 70 70" fill="none" xmlns="http://www.w3.org/2000/svg">
<path d="M12.9107 59.5022L7.99756 4.375H62.0026L57.0829 59.4934L34.9672 65.625L12.9107 59.5022Z" fill="#1572B6"/>
<path d="M35 60.9394L52.8719 55.9847L57.0762 8.88344H35V60.9394Z" fill="#33A9DC"/>
<path d="M35 28.8553H43.9469L44.5637 21.9319H35V15.1703H51.9531L51.7913 16.9837L50.1309 35.6169H35V28.8553V28.8553Z" fill="white"/>
<path d="M35.0415 46.4144L35.0108 46.4231L27.4815 44.3888L27.0002 38.9966H20.2124L21.1596 49.6125L35.0087 53.4581L35.0415 53.4494V46.4144V46.4144Z" fill="#EBEBEB"/>
<path d="M43.3716 35.3303L42.5579 44.3844L35.0176 46.4187V53.4537L48.8776 49.6125L48.9804 48.4706L50.1551 35.3303H43.3716V35.3303Z" fill="white"/>
<path d="M35.024 15.1703V21.9319H18.6921L18.5565 20.4116L18.2481 16.9837L18.0862 15.1703H35.024V15.1703Z" fill="#EBEBEB"/>
<path d="M35 28.8553V35.6169H27.5647L27.4291 34.0966L27.1228 30.6688L26.9609 28.8553H35V28.8553Z" fill="#EBEBEB"/>
</svg>
