<svg width="70" height="70" viewBox="0 0 70 70" fill="none" xmlns="http://www.w3.org/2000/svg">
<path d="M36.6165 4.45594C35.8666 4.45892 35.1475 4.75486 34.6128 5.28063L34.5843 5.3025L15.7937 16.1634L34.5318 34.9016V34.9147L57.0631 57.4459L61.3571 49.7109L45.8675 12.53L38.6487 5.31125C38.3834 5.04298 38.0677 4.82986 37.7196 4.68419C37.3716 4.53852 36.9982 4.46318 36.6209 4.4625L36.6165 4.45594Z" fill="#66C3FA"/>
<path d="M15.8594 16.0781L5.005 34.8491L4.98313 34.8775C4.45656 35.4146 4.15996 36.1357 4.15625 36.8878C4.15667 37.264 4.2317 37.6363 4.37702 37.9833C4.52233 38.3302 4.73504 38.6449 5.00281 38.9091L14 47.9062L49.1837 61.7466L57.1375 57.3278L56.9188 57.1091H56.8641L34.8075 35.0153H34.7812L15.8594 16.0781Z" fill="#215896"/>
<path d="M15.7325 16.1044L34.9038 35.2953H34.9322L56.9975 57.3891L65.3954 55.7878L65.4063 30.9313L56.5382 22.2403C54.327 20.2671 51.5562 19.0315 48.6107 18.7053V18.6091L15.7325 16.1044Z" fill="#235997"/>
<path d="M15.8726 16.2116L35.0526 35.3916V35.42L57.1288 57.4963L55.5232 65.8941H30.6732L21.9866 57.0216C20.0147 54.8092 18.7807 52.0377 18.456 49.0919H18.3597L15.8726 16.2116Z" fill="#58B6F0"/>
</svg>
