<svg width="70" height="70" viewBox="0 0 70 70" fill="none" xmlns="http://www.w3.org/2000/svg">
<path d="M64.4701 32.2722L37.7279 5.52999C37.3621 5.16291 36.9274 4.87165 36.4488 4.67292C35.9702 4.47419 35.457 4.37189 34.9388 4.37189C34.4206 4.37189 33.9074 4.47419 33.4288 4.67292C32.9502 4.87165 32.5156 5.16291 32.1497 5.52999L26.5957 11.0841L33.6394 18.1278C34.47 17.8451 35.3633 17.8015 36.2176 18.0018C37.0718 18.2021 37.8526 18.6384 38.4709 19.2608C39.0893 19.8833 39.5203 20.6669 39.715 21.5224C39.9097 22.378 39.8601 23.271 39.5719 24.0997L46.3532 30.8809C47.3668 30.5327 48.4692 30.5423 49.4766 30.9082C50.484 31.2741 51.3356 31.9741 51.8895 32.8917C52.4434 33.8092 52.6662 34.8889 52.5207 35.9508C52.3752 37.0126 51.8702 37.9926 51.0899 38.7273C50.3096 39.4621 49.3011 39.9072 48.2325 39.9887C47.1638 40.0701 46.0995 39.7829 45.2168 39.1749C44.3342 38.5668 43.6866 37.6747 43.3819 36.6472C43.0772 35.6196 43.1338 34.5187 43.5422 33.5278L37.2094 27.195V43.8572C38.1687 44.3325 38.9363 45.1221 39.3841 46.0945C39.832 47.067 39.9332 48.1635 39.6708 49.2014C39.4085 50.2394 38.7984 51.1562 37.9423 51.799C37.0861 52.4418 36.0356 52.7719 34.9657 52.7343C33.8957 52.6967 32.871 52.2937 32.0621 51.5923C31.2532 50.891 30.709 49.9336 30.5202 48.8798C30.3313 47.826 30.5092 46.7393 31.0243 45.8007C31.5393 44.8621 32.3604 44.1283 33.3507 43.7216V26.9062C32.7778 26.6712 32.257 26.3251 31.8184 25.8879C31.3798 25.4507 31.0321 24.931 30.7952 24.3589C30.5583 23.7867 30.437 23.1733 30.4382 22.554C30.4394 21.9348 30.5631 21.3219 30.8022 20.7506L23.8679 13.8119L5.53005 32.1562C5.16264 32.5221 4.87111 32.9569 4.67218 33.4357C4.47325 33.9145 4.37085 34.4279 4.37085 34.9464C4.37085 35.4649 4.47325 35.9783 4.67218 36.4571C4.87111 36.9359 5.16264 37.3707 5.53005 37.7366L32.2722 64.47C32.6381 64.8371 33.0727 65.1283 33.5513 65.3271C34.0299 65.5258 34.5431 65.6281 35.0613 65.6281C35.5795 65.6281 36.0927 65.5258 36.5713 65.3271C37.0499 65.1283 37.4846 64.8371 37.8504 64.47L64.4701 37.8437C64.8375 37.4779 65.129 37.0431 65.3279 36.5643C65.5269 36.0855 65.6293 35.5721 65.6293 35.0536C65.6293 34.5351 65.5269 34.0217 65.3279 33.5429C65.129 33.0641 64.8375 32.6293 64.4701 32.2634" fill="#DD4C35"/>
<path d="M26.5956 11.0841L33.6394 18.1278C34.47 17.8451 35.3633 17.8015 36.2175 18.0018C37.0717 18.2021 37.8525 18.6384 38.4708 19.2608C39.0892 19.8833 39.5203 20.6669 39.7149 21.5224C39.9096 22.378 39.86 23.271 39.5719 24.0997L46.3531 30.8809C47.3667 30.5327 48.4691 30.5423 49.4765 30.9082C50.4839 31.2741 51.3355 31.9741 51.8894 32.8917C52.4433 33.8092 52.6661 34.8889 52.5206 35.9508C52.3751 37.0126 51.8702 37.9926 51.0899 38.7273C50.3096 39.4621 49.3011 39.9072 48.2324 39.9887C47.1637 40.0701 46.0994 39.7829 45.2168 39.1749C44.3341 38.5669 43.6865 37.6747 43.3818 36.6472C43.0771 35.6196 43.1337 34.5187 43.5422 33.5278L37.2094 27.195V43.8572C38.1687 44.3325 38.9362 45.1221 39.384 46.0945C39.8319 47.067 39.9331 48.1635 39.6707 49.2015C39.4084 50.2394 38.7983 51.1562 37.9422 51.799C37.0861 52.4418 36.0355 52.7719 34.9656 52.7343C33.8957 52.6967 32.8709 52.2937 32.062 51.5923C31.2531 50.891 30.7089 49.9336 30.5201 48.8798C30.3313 47.826 30.5092 46.7393 31.0242 45.8007C31.5392 44.8621 32.3603 44.1283 33.3506 43.7216V26.9062C32.7777 26.6712 32.2569 26.3251 31.8183 25.8879C31.3798 25.4507 31.032 24.9311 30.7951 24.3589C30.5583 23.7867 30.4369 23.1733 30.4381 22.554C30.4393 21.9348 30.5631 21.3219 30.8022 20.7506L23.8678 13.8119" fill="white"/>
</svg>
