<svg width="70" height="70" viewBox="0 0 70 70" fill="none" xmlns="http://www.w3.org/2000/svg">
<g clip-path="url(#clip0_29_39)">
<path d="M26.8554 52.382C26.8554 52.382 24.3723 53.826 28.6226 54.3146C33.7719 54.902 36.4034 54.8179 42.078 53.7438C42.078 53.7438 43.57 54.6793 45.6533 55.4896C32.9328 60.9414 16.8638 55.1737 26.8554 52.382" fill="#5382A1"/>
<path d="M25.3011 45.2676C25.3011 45.2676 22.516 47.3293 26.7695 47.7691C32.2701 48.3366 36.6139 48.383 44.1306 46.9357C44.1306 46.9357 45.1703 47.9896 46.8051 48.5661C31.4249 53.0635 14.2943 48.9208 25.3011 45.2676" fill="#5382A1"/>
<path d="M38.4052 33.1993C41.5397 36.8079 37.5817 40.0553 37.5817 40.0553C37.5817 40.0553 45.5403 35.9468 41.8853 30.8018C38.4716 26.0042 35.8536 23.62 50.0258 15.4008C50.0258 15.4008 27.7802 20.9567 38.4052 33.1991" fill="#E76F00"/>
<path d="M55.2293 57.6442C55.2293 57.6442 57.0668 59.1582 53.2054 60.3296C45.8629 62.554 22.6449 63.2257 16.195 60.4182C13.8765 59.4097 18.2245 58.01 19.5921 57.7161C21.0184 57.4068 21.8337 57.4645 21.8337 57.4645C19.2552 55.648 5.16738 61.0312 14.6778 62.5726C40.6139 66.7787 61.9567 60.6788 55.2293 57.6442Z" fill="#5382A1"/>
<path d="M28.0494 37.8963C28.0494 37.8963 16.2394 40.7015 23.8673 41.72C27.088 42.1512 33.5083 42.0537 39.4888 41.5525C44.3764 41.1405 49.2841 40.2637 49.2841 40.2637C49.2841 40.2637 47.5608 41.0018 46.3139 41.8532C34.3209 45.0074 11.1526 43.5401 17.8225 40.3136C23.4632 37.587 28.0496 37.8963 28.0496 37.8963" fill="#5382A1"/>
<path d="M49.2354 49.7384C61.4271 43.4033 55.7902 37.3153 51.8557 38.1356C50.8913 38.3362 50.4614 38.5101 50.4614 38.5101C50.4614 38.5101 50.8194 37.9494 51.5031 37.7067C59.2866 34.9701 65.2728 45.7775 48.9905 50.0577C48.9905 50.0579 49.1792 49.8893 49.2354 49.7384" fill="#5382A1"/>
<path d="M41.8852 2.12862C41.8852 2.12862 48.6371 8.88296 35.4814 19.2687C24.932 27.6 33.0758 32.3502 35.4771 37.7776C29.3191 32.2217 24.7999 27.3308 27.8319 22.7788C32.2816 16.0966 44.6093 12.8569 41.8852 2.12844" fill="#E76F00"/>
<path d="M29.2474 66.9052C40.9497 67.6544 58.9198 66.4896 59.3454 60.9523C59.3454 60.9523 58.5274 63.0516 49.6741 64.7186C39.6859 66.5981 27.3671 66.3787 20.0605 65.1741C20.0607 65.1741 21.5563 66.4121 29.2476 66.9052" fill="#5382A1"/>
</g>
<defs>
<clipPath id="clip0_29_39">
<rect width="48.1646" height="65.0975" fill="white" transform="translate(11.3235 2.05882)"/>
</clipPath>
</defs>
</svg>
