<svg width="70" height="81" viewBox="0 0 70 81" fill="none" xmlns="http://www.w3.org/2000/svg">
<g clip-path="url(#clip0_39_24)">
<g filter="url(#filter0_f_39_24)">
<path d="M67.0263 68.1807C67.0263 72.9259 52.6388 76.7927 34.8865 76.7927C17.1341 76.7927 2.74634 72.9511 2.74634 68.1807C2.74634 63.4351 17.1341 59.5684 34.8862 59.5684C52.6388 59.5684 67.0014 63.4351 67.0263 68.1807Z" fill="black" fill-opacity="0.2"/>
</g>
<path d="M17.2847 58.9157C14.171 54.4463 13.5684 39.8838 20.8249 30.9198C24.4156 26.6268 25.3448 23.6388 25.6209 19.5963C25.8216 15.0014 22.3818 1.31763 35.3381 0.288187C48.4705 -0.766409 47.7423 12.1892 47.6668 19.044C47.6168 24.8187 51.9106 28.108 54.8733 32.6277C60.3221 40.9132 59.8701 55.1744 53.8438 62.908C46.2105 72.5746 39.6822 68.3814 35.3381 68.733C27.2028 69.2101 26.9266 73.5288 17.2847 58.9157V58.9157Z" fill="black"/>
<path d="M48.9726 33.481C51.2326 35.565 57.083 44.88 47.8176 50.7053C44.5536 52.7391 50.7305 60.4723 53.6932 56.7313C58.9413 50.0024 55.6018 39.256 52.4379 35.4144C50.3286 32.7028 47.0646 31.6482 48.9729 33.4813L48.9726 33.481Z" fill="url(#paint0_linear_39_24)"/>
<path d="M48.3451 32.2257C52.0611 35.2389 58.8155 45.784 48.9477 52.6636C45.7086 54.798 51.8101 61.5521 55.2502 58.1121C67.177 46.1105 54.9488 32.3261 50.7303 27.5805C46.9639 23.4379 43.6244 28.5348 48.3451 32.2257Z" fill="black" stroke="black" stroke-width="0.977"/>
<path d="M42.9966 6.84106C42.871 10.281 39.0796 13.2693 34.5348 13.5454C29.99 13.8216 26.4246 11.2104 26.5498 7.77043C26.6756 4.33049 30.4671 1.34251 35.0119 1.06635C39.5564 0.81535 43.1221 3.40139 42.9966 6.84106V6.84106Z" fill="url(#paint1_linear_39_24)"/>
<path d="M32.1242 15.0265C32.2499 17.2612 31.1953 19.1443 29.739 19.2195C28.2826 19.295 27.0018 17.5626 26.8763 15.3279C26.7508 13.0932 27.8055 11.2101 29.2618 11.1349C30.7181 11.0594 31.9989 12.7919 32.1242 15.0265V15.0265Z" fill="url(#paint2_linear_39_24)"/>
<path d="M34.7606 15.2024C34.8109 17.7884 36.4934 19.8473 38.502 19.7972C40.5107 19.7469 42.0925 17.6126 42.0425 15.0014C41.9922 12.4154 40.31 10.3565 38.3011 10.4068C36.2924 10.4568 34.6854 12.616 34.7606 15.2024V15.2024Z" fill="url(#paint3_linear_39_24)"/>
<path d="M36.4179 15.7798C36.3927 17.2109 37.096 18.3659 38.0249 18.3659C38.9289 18.3659 39.7073 17.2109 39.7325 15.805C39.7574 14.3739 39.0544 13.2187 38.1252 13.2187C37.1964 13.2187 36.443 14.3739 36.4179 15.7798Z" fill="black"/>
<path d="M30.6179 15.805C30.7434 16.9851 30.2915 17.9894 29.6385 18.0897C28.9858 18.1652 28.358 17.2864 28.2325 16.1063C28.1067 14.9262 28.559 13.9216 29.2116 13.8213C29.8646 13.7461 30.4924 14.6249 30.6179 15.805V15.805Z" fill="black"/>
<path d="M36.7948 14.9762C36.7193 15.7798 37.0961 16.4325 37.6233 16.4828C38.1505 16.5331 38.6528 15.9053 38.728 15.1269C38.8035 14.3236 38.4267 13.6706 37.8995 13.6203C37.3723 13.5703 36.87 14.1981 36.7948 14.9765V14.9762Z" fill="url(#paint4_linear_39_24)"/>
<path d="M30.0651 15.1772C30.1406 15.8301 29.8644 16.4076 29.4627 16.4576C29.0608 16.508 28.6843 16.0057 28.6088 15.3279C28.5336 14.6749 28.8098 14.0975 29.2115 14.0474C29.6134 13.9971 29.9899 14.5243 30.0651 15.1772V15.1772Z" fill="url(#paint5_linear_39_24)"/>
<path d="M22.1557 39.8335C23.9386 35.7909 27.73 28.6854 27.8055 23.1866C27.8055 18.8178 40.8876 17.7633 41.9422 22.1323C42.9966 26.5011 45.6582 33.029 47.3656 36.1928C49.0732 39.3312 54.0197 49.3494 48.7467 58.087C44.0009 65.8205 29.6135 71.9468 21.9299 57.0326C19.3186 51.8603 19.7954 45.4578 22.1557 39.8335Z" fill="url(#paint6_linear_39_24)"/>
<path d="M20.5487 36.8203C19.0172 39.7077 15.8533 47.2905 23.5872 51.4335C31.8983 55.8525 31.8732 64.9165 21.8796 60.5978C12.7399 56.7062 16.7824 40.9381 19.3437 37.172C21.0007 34.5356 23.5117 31.2966 20.5487 36.8203V36.8203Z" fill="url(#paint7_linear_39_24)"/>
<path d="M21.8545 33.5565C19.4189 37.5236 13.5936 46.8637 21.4027 51.7348C31.8984 58.1876 28.9354 64.6152 19.3438 58.8151C5.83485 50.7305 17.7113 34.4101 23.1101 28.1834C29.287 21.2032 24.2902 29.4639 21.8545 33.5562V33.5565Z" fill="black" stroke="black" stroke-width="1.25"/>
<path d="M45.5076 41.3649C45.5076 45.784 41.2641 51.5089 33.9822 51.4586C26.4747 51.5087 23.2859 45.784 23.2859 41.3649C23.2859 36.9461 28.2575 33.3555 34.3842 33.3555C40.536 33.3807 45.5076 36.9461 45.5076 41.3649Z" fill="url(#paint8_linear_39_24)"/>
<path d="M41.5405 27.4802C41.465 32.0499 38.4769 33.1297 34.7105 33.1297C30.9439 33.1297 28.2071 32.4516 27.8806 27.4802C27.8806 24.3667 30.9439 22.5591 34.7105 22.5591C38.4769 22.5339 41.5402 24.3418 41.5402 27.4802H41.5405Z" fill="url(#paint9_linear_39_24)"/>
<path d="M18.7661 34.5104C21.227 30.7695 26.4245 25.0196 19.7455 35.314C14.3219 43.8006 17.7368 49.2491 19.4945 50.7554C24.5665 55.2751 24.3655 58.3128 20.3733 55.9277C11.8109 50.8308 13.5937 42.2437 18.7661 34.5104V34.5104Z" fill="url(#paint10_linear_39_24)"/>
<path d="M54.3964 36.0422C52.262 31.6483 45.4824 20.5002 54.7226 33.4559C63.1344 45.1814 57.2336 53.3417 56.179 54.145C55.1246 54.9486 51.5841 56.5807 52.6133 53.7434C53.6683 50.906 58.8909 45.533 54.3962 36.0419L54.3964 36.0422Z" fill="url(#paint11_linear_39_24)"/>
<path d="M16.9079 70.6915C11.2833 67.7035 3.12279 71.269 6.08576 63.1841C6.68841 61.3511 5.20693 58.5892 6.16095 56.8065C7.29107 54.6221 9.72658 55.0993 11.1829 53.643C12.6141 52.1364 13.5181 49.5252 16.2049 49.9272C18.8665 50.3286 20.6493 53.5927 22.5073 57.6101C23.8882 60.4723 28.7595 64.5149 28.4333 67.7287C28.0313 72.6498 22.4319 73.5789 16.9079 70.6915V70.6915Z" fill="url(#paint12_linear_39_24)" stroke="#E68C3F" stroke-width="6.25"/>
<path d="M57.8615 51.7096C57.0078 53.3165 53.4422 55.9026 51.0567 55.2247C48.6464 54.5718 47.5414 50.906 48.0186 48.119C48.4706 45.0058 51.0567 44.8297 54.3213 46.3866C57.8363 48.119 58.891 49.5753 57.8615 51.7096V51.7096Z" fill="url(#paint13_linear_39_24)"/>
<path d="M55.9028 69.3102C60.0208 64.3139 69.1858 65.3434 63.0089 58.4889C61.7032 57.0075 62.1049 53.8437 60.4979 52.4881C58.6148 50.8308 56.5306 52.1867 54.6223 51.3331C52.714 50.404 50.7053 48.6213 48.3701 49.8766C46.035 51.1573 45.7837 54.4715 45.5578 58.8402C45.3569 61.9789 42.4945 67.2264 44.026 70.1138C46.2357 74.5832 51.9858 73.9805 55.9028 69.3105V69.3102Z" fill="url(#paint14_linear_39_24)" stroke="#E68C3F" stroke-width="6.251"/>
<path d="M54.12 62.6315C60.4979 53.2162 55.7524 53.2914 54.1451 52.5632C52.5381 51.81 50.8557 50.3286 48.9728 51.358C47.0893 52.4126 46.989 55.1244 46.9387 58.6896C46.8635 61.2507 44.7293 65.5443 46.0098 67.9294C47.5665 70.7164 51.3328 66.6741 54.12 62.6315V62.6315Z" fill="url(#paint15_linear_39_24)"/>
<path d="M15.6022 63.9874C6.06059 57.8108 10.5299 55.7019 11.9614 54.7225C13.6939 53.4672 13.719 51.0567 15.8532 51.2828C17.9877 51.5087 19.243 54.145 20.6742 57.4091C21.7288 59.7442 25.3948 62.8576 25.1186 65.5443C24.7673 68.7078 19.7202 66.6238 15.6022 63.9874V63.9874Z" fill="url(#paint16_linear_39_24)"/>
<path d="M57.3091 51.6342C56.5558 52.94 53.4925 54.9989 51.4586 54.4463C49.3745 53.9192 48.4202 50.9815 48.8473 48.772C49.2238 46.2611 51.4586 46.1356 54.2707 47.3912C57.2588 48.7468 58.1879 49.9017 57.3091 51.6342Z" fill="black"/>
<path d="M55.2502 50.906C54.7731 51.81 52.7644 53.2411 51.3581 52.8645C49.9521 52.488 49.2491 50.4543 49.475 48.9226C49.6759 47.1902 51.1823 47.0896 53.0906 47.9435C55.1496 48.8977 55.8026 49.701 55.2502 50.906V50.906Z" fill="url(#paint17_linear_39_24)"/>
<path d="M29.2871 18.14C30.2915 17.2109 32.727 14.3739 37.3472 17.3364C38.2009 17.8888 38.9039 17.9391 40.5361 18.642C43.8255 19.9982 42.2686 23.2621 38.7533 24.3667C37.2466 24.8438 35.8909 26.6769 33.179 26.501C30.8438 26.3753 30.2411 24.8441 28.81 24.0154C26.2738 22.5843 25.8973 20.6509 27.2782 19.6214C28.6593 18.592 29.1868 18.2152 29.2871 18.14Z" fill="url(#paint18_linear_39_24)" stroke="#E68C3F" stroke-width="3.75"/>
<path d="M40.5862 20.7764C39.2053 20.8516 36.2169 23.8395 33.0784 23.8395C29.9396 23.8395 28.0565 20.927 27.5796 20.927" stroke="#E68C3F" stroke-width="2.5"/>
<path d="M30.8437 17.889C31.346 17.437 32.9278 16.2066 35.012 17.4619C35.4639 17.7132 35.9159 17.9894 36.5686 18.3659C37.8995 19.1443 37.2468 20.2744 35.6395 20.9771C34.9113 21.2784 33.7063 21.9313 32.8023 21.881C31.798 21.7807 31.1198 21.1277 30.4671 20.7009C29.2367 19.8976 29.3122 19.2195 29.8897 18.6923C30.3162 18.2904 30.7934 17.9139 30.8439 17.889H30.8437Z" fill="url(#paint19_linear_39_24)"/>
</g>
<defs>
<filter id="filter0_f_39_24" x="-10.2537" y="46.5684" width="90.28" height="43.2243" filterUnits="userSpaceOnUse" color-interpolation-filters="sRGB">
<feFlood flood-opacity="0" result="BackgroundImageFix"/>
<feBlend mode="normal" in="SourceGraphic" in2="BackgroundImageFix" result="shape"/>
<feGaussianBlur stdDeviation="6.5" result="effect1_foregroundBlur_39_24"/>
</filter>
<linearGradient id="paint0_linear_39_24" x1="51.5252" y1="61.5844" x2="53.1731" y2="43.1033" gradientUnits="userSpaceOnUse">
<stop stop-color="#FFEED7"/>
<stop offset="1" stop-color="#BDBFC2"/>
</linearGradient>
<linearGradient id="paint1_linear_39_24" x1="35.4983" y1="1.35041" x2="34.7117" y2="12.422" gradientUnits="userSpaceOnUse">
<stop stop-color="white" stop-opacity="0.8"/>
<stop offset="1" stop-color="white" stop-opacity="0"/>
</linearGradient>
<linearGradient id="paint2_linear_39_24" x1="29.5983" y1="18.2712" x2="29.1138" y2="11.9424" gradientUnits="userSpaceOnUse">
<stop stop-color="#FFEED7"/>
<stop offset="1" stop-color="#BDBFC2"/>
</linearGradient>
<linearGradient id="paint3_linear_39_24" x1="38.3954" y1="18.4353" x2="38.3953" y2="11.703" gradientUnits="userSpaceOnUse">
<stop stop-color="#FFEED7"/>
<stop offset="1" stop-color="#BDBFC2"/>
</linearGradient>
<linearGradient id="paint4_linear_39_24" x1="37.8376" y1="13.7065" x2="37.5057" y2="16.2878" gradientUnits="userSpaceOnUse">
<stop stop-color="white" stop-opacity="0.65"/>
<stop offset="1" stop-color="white" stop-opacity="0"/>
</linearGradient>
<linearGradient id="paint5_linear_39_24" x1="29.2717" y1="14.1764" x2="29.6289" y2="16.2669" gradientUnits="userSpaceOnUse">
<stop stop-color="white" stop-opacity="0.65"/>
<stop offset="1" stop-color="white" stop-opacity="0"/>
</linearGradient>
<linearGradient id="paint6_linear_39_24" x1="35.6356" y1="61.4014" x2="35.6356" y2="38.3596" gradientUnits="userSpaceOnUse">
<stop stop-color="#FFEED7"/>
<stop offset="1" stop-color="#BDBFC2"/>
</linearGradient>
<linearGradient id="paint7_linear_39_24" x1="23.3795" y1="61.7278" x2="17.4984" y2="41.6781" gradientUnits="userSpaceOnUse">
<stop stop-color="#FFEED7"/>
<stop offset="1" stop-color="#BDBFC2"/>
</linearGradient>
<linearGradient id="paint8_linear_39_24" x1="34.3614" y1="35.7504" x2="34.4204" y2="50.4947" gradientUnits="userSpaceOnUse">
<stop stop-color="white" stop-opacity="0.8"/>
<stop offset="1" stop-color="white" stop-opacity="0"/>
</linearGradient>
<linearGradient id="paint9_linear_39_24" x1="34.7006" y1="26.5046" x2="34.766" y2="32.3671" gradientUnits="userSpaceOnUse">
<stop stop-color="white" stop-opacity="0.65"/>
<stop offset="1" stop-color="white" stop-opacity="0"/>
</linearGradient>
<linearGradient id="paint10_linear_39_24" x1="18.8673" y1="30.123" x2="18.8673" y2="51.6375" gradientUnits="userSpaceOnUse">
<stop stop-color="white" stop-opacity="0.65"/>
<stop offset="1" stop-color="white" stop-opacity="0"/>
</linearGradient>
<linearGradient id="paint11_linear_39_24" x1="54.5683" y1="28.0217" x2="54.5607" y2="47.461" gradientUnits="userSpaceOnUse">
<stop stop-color="white" stop-opacity="0.65"/>
<stop offset="1" stop-color="white" stop-opacity="0"/>
</linearGradient>
<linearGradient id="paint12_linear_39_24" x1="17.75" y1="60.861" x2="14.5596" y2="71.9367" gradientUnits="userSpaceOnUse">
<stop stop-color="#FFA63F"/>
<stop offset="1" stop-color="#FFFF00"/>
</linearGradient>
<linearGradient id="paint13_linear_39_24" x1="53.3186" y1="59.5972" x2="52.8629" y2="39.0231" gradientUnits="userSpaceOnUse">
<stop stop-color="#FFEED7"/>
<stop offset="1" stop-color="#BDBFC2"/>
</linearGradient>
<linearGradient id="paint14_linear_39_24" x1="50.1551" y1="57.5129" x2="58.8424" y2="69.8209" gradientUnits="userSpaceOnUse">
<stop stop-color="#FFA63F"/>
<stop offset="1" stop-color="#FFFF00"/>
</linearGradient>
<linearGradient id="paint15_linear_39_24" x1="52.6032" y1="47.9335" x2="49.6342" y2="62.4679" gradientUnits="userSpaceOnUse">
<stop stop-color="white" stop-opacity="0.65"/>
<stop offset="1" stop-color="white" stop-opacity="0"/>
</linearGradient>
<linearGradient id="paint16_linear_39_24" x1="17.0521" y1="51.5163" x2="17.6388" y2="67.8232" gradientUnits="userSpaceOnUse">
<stop stop-color="white" stop-opacity="0.65"/>
<stop offset="1" stop-color="white" stop-opacity="0"/>
</linearGradient>
<linearGradient id="paint17_linear_39_24" x1="52.0483" y1="47.6697" x2="52.7357" y2="52.5492" gradientUnits="userSpaceOnUse">
<stop stop-color="white" stop-opacity="0.65"/>
<stop offset="1" stop-color="white" stop-opacity="0"/>
</linearGradient>
<linearGradient id="paint18_linear_39_24" x1="34.3739" y1="17.8686" x2="34.4312" y2="26.4489" gradientUnits="userSpaceOnUse">
<stop stop-color="#FFA63F"/>
<stop offset="1" stop-color="#FFFF00"/>
</linearGradient>
<linearGradient id="paint19_linear_39_24" x1="33.3985" y1="17.0571" x2="33.3829" y2="21.5941" gradientUnits="userSpaceOnUse">
<stop stop-color="white" stop-opacity="0.65"/>
<stop offset="1" stop-color="white" stop-opacity="0"/>
</linearGradient>
<clipPath id="clip0_39_24">
<rect width="70" height="80.66" fill="white"/>
</clipPath>
</defs>
</svg>
