<svg width="70" height="70" viewBox="0 0 70 70" fill="none" xmlns="http://www.w3.org/2000/svg">
<path d="M32.7078 0.0188674C32.5574 0.0325393 32.0783 0.0803908 31.6471 0.114571C21.7049 1.0109 12.3919 6.37465 6.49359 14.6188C3.20906 19.2027 1.10852 24.4024 0.314727 29.91C0.0341797 31.8322 0 32.4002 0 35.0068C0 37.6135 0.0341797 38.1814 0.314727 40.1037C2.21703 53.2465 11.5708 64.289 24.2569 68.3802C26.5289 69.1124 28.9237 69.6117 31.6471 69.9128C32.7078 70.029 37.2922 70.029 38.3529 69.9128C43.0538 69.3927 47.0362 68.2298 50.9638 66.2252C51.5659 65.9173 51.6824 65.8353 51.6001 65.7666C51.5454 65.7256 48.9795 62.2844 45.9003 58.1246L40.303 50.5646L33.2894 40.186C29.4301 34.4799 26.2552 29.814 26.2279 29.814C26.2005 29.8071 26.1732 34.4187 26.1595 40.049C26.1387 49.9078 26.1321 50.3046 26.0088 50.5373C25.8311 50.8725 25.6941 51.0095 25.4067 51.1599C25.1877 51.2693 24.996 51.2898 23.963 51.2898H22.779L22.4645 51.0915C22.2695 50.9693 22.1111 50.7967 22.006 50.592L21.8621 50.2841L21.8758 36.5668L21.8963 22.8424L22.1085 22.5755C22.2179 22.432 22.4506 22.2474 22.6149 22.1583C22.8955 22.0216 23.0048 22.0079 24.1886 22.0079C25.5845 22.0079 25.8171 22.0626 26.1797 22.4593C26.2825 22.5687 30.08 28.2885 34.6235 35.178C39.1672 42.0673 45.3805 51.4746 48.4321 56.0927L53.9746 64.4872L54.2552 64.3027C56.7391 62.688 59.3666 60.3892 61.4466 57.9945C65.8738 52.9112 68.7271 46.713 69.6853 40.104C69.9658 38.1814 70 37.6135 70 35.0071C70 32.4002 69.9658 31.8325 69.6853 29.91C67.783 16.7672 58.4292 5.72469 45.7431 1.63352C43.5053 0.90836 41.1242 0.408789 38.4554 0.107735C37.7986 0.0393752 33.2757 -0.0358201 32.7078 0.0188674V0.0188674ZM47.0362 21.1868C47.3646 21.3508 47.6314 21.6658 47.7271 21.9942C47.7818 22.172 47.7955 25.976 47.7818 34.5486L47.7616 46.8497L45.5924 43.5247L43.4164 40.1997V31.2577C43.4164 25.4764 43.4437 22.2266 43.4848 22.0694C43.5941 21.6863 43.8339 21.3853 44.1623 21.2073C44.4429 21.0637 44.5454 21.05 45.6198 21.05C46.6326 21.05 46.8103 21.0637 47.0362 21.1868Z" fill="black"/>
</svg>
