<svg width="70" height="70" viewBox="0 0 70 70" fill="none" xmlns="http://www.w3.org/2000/svg">
<path d="M35.0001 65.625C34.1738 65.6253 33.362 65.408 32.6464 64.995L25.1564 60.5609C24.0386 59.9353 24.5832 59.7144 24.9529 59.5853C26.1418 59.218 27.2801 58.7036 28.3414 58.0541C28.4302 58.013 28.528 57.9952 28.6257 58.0025C28.7233 58.0098 28.8174 58.0418 28.8992 58.0956L34.6545 61.5147C34.7617 61.5714 34.8811 61.601 35.0023 61.601C35.1235 61.601 35.2429 61.5714 35.3501 61.5147L57.7939 48.5603C57.8989 48.4974 57.9858 48.4083 58.046 48.3017C58.1062 48.195 58.1376 48.0746 58.1373 47.9522V22.0391C58.1374 21.9147 58.1054 21.7924 58.0445 21.684C57.9836 21.5755 57.8957 21.4846 57.7895 21.42L35.3457 8.47656C35.2399 8.41696 35.1205 8.38564 34.999 8.38564C34.8776 8.38564 34.7581 8.41696 34.6523 8.47656L12.2217 21.4244C12.1147 21.4877 12.0258 21.5775 11.9638 21.6852C11.9017 21.7929 11.8684 21.9148 11.8673 22.0391V47.9413C11.8676 48.0634 11.9004 48.1833 11.9623 48.2886C12.0242 48.3939 12.1129 48.4809 12.2195 48.5406L18.3751 52.0931C21.711 53.76 23.7542 51.7956 23.7542 49.8225V24.2484C23.7542 24.0744 23.8233 23.9075 23.9464 23.7844C24.0695 23.6613 24.2364 23.5922 24.4104 23.5922H27.2542C27.4282 23.5922 27.5951 23.6613 27.7182 23.7844C27.8413 23.9075 27.9104 24.0744 27.9104 24.2484V49.8247C27.9104 54.2763 25.4867 56.8247 21.2648 56.8247C19.4434 56.8564 17.6506 56.3693 16.0957 55.4203L10.1961 52.0363C9.47984 51.6192 8.88556 51.0215 8.47254 50.303C8.05952 49.5844 7.84221 48.7701 7.8423 47.9413V22.0391C7.84017 21.209 8.05656 20.3929 8.46973 19.673C8.88289 18.953 9.47828 18.3545 10.1961 17.9375L32.642 4.97875C33.365 4.58318 34.1759 4.37585 35.0001 4.37585C35.8243 4.37585 36.6352 4.58318 37.3582 4.97875L59.802 17.9375C60.5181 18.3538 61.1125 18.9506 61.5259 19.6684C61.9393 20.3861 62.1573 21.1998 62.1579 22.0281V47.9413C62.1567 48.7701 61.9386 49.5841 61.5253 50.3025C61.112 51.0209 60.5179 51.6186 59.802 52.0363L37.3582 64.995C36.6413 65.4087 35.8279 65.626 35.0001 65.625V65.625Z" fill="#83CD29"/>
<path d="M30.7432 39.2722C30.7432 39.0981 30.8123 38.9312 30.9354 38.8081C31.0584 38.6851 31.2254 38.6159 31.3994 38.6159H34.3022C34.4573 38.6164 34.6072 38.6719 34.7254 38.7724C34.8435 38.8729 34.9222 39.012 34.9475 39.165C35.385 42.1203 36.6975 43.61 42.6322 43.61C47.3594 43.61 49.3741 42.5403 49.3741 40.0312C49.3741 38.5853 48.8032 37.5113 41.4554 36.7916C35.3129 36.1834 31.5154 34.8228 31.5154 29.9141C31.5154 25.3859 35.3325 22.6844 41.731 22.6844C48.9213 22.6844 52.4804 25.1803 52.931 30.5353C52.9379 30.6247 52.9263 30.7146 52.8972 30.7994C52.868 30.8841 52.8217 30.962 52.7612 31.0282C52.7008 31.0945 52.6274 31.1476 52.5456 31.1843C52.4638 31.2211 52.3753 31.2406 52.2857 31.2419H49.3632C49.2166 31.2398 49.0749 31.1887 48.9607 31.0967C48.8465 31.0048 48.7664 30.8772 48.7332 30.7344C48.0354 27.6259 46.3269 26.6328 41.7332 26.6328C36.5707 26.6328 35.9713 28.4309 35.9713 29.7784C35.9713 31.4103 36.68 31.8872 43.6494 32.8081C50.5466 33.7203 53.8235 35.0109 53.8235 39.8584C53.8235 44.7497 49.746 47.5497 42.6344 47.5497C32.8016 47.5628 30.7432 43.0544 30.7432 39.2722V39.2722Z" fill="#83CD29"/>
</svg>
