<svg width="70" height="70" viewBox="0 0 70 70" fill="none" xmlns="http://www.w3.org/2000/svg">
<path d="M35 51.1109C51.9137 51.1109 65.625 43.8978 65.625 35C65.625 26.1022 51.9137 18.8891 35 18.8891C18.0863 18.8891 4.375 26.1022 4.375 35C4.375 43.8978 18.0863 51.1109 35 51.1109Z" fill="url(#paint0_radial_28_37)"/>
<path d="M35 49.9144C51.2528 49.9144 64.4284 43.237 64.4284 35C64.4284 26.763 51.2528 20.0856 35 20.0856C18.7471 20.0856 5.57153 26.763 5.57153 35C5.57153 43.237 18.7471 49.9144 35 49.9144Z" fill="#6280B6"/>
<path d="M40.9609 39.8125L42.4199 32.3006C42.6278 31.6577 42.662 30.9713 42.5191 30.311C42.3762 29.6506 42.0612 29.0397 41.6062 28.5403C40.336 27.6384 38.7806 27.2301 37.2312 27.3919H34.709L35.4331 23.6731C35.4463 23.6039 35.444 23.5326 35.4265 23.4643C35.4089 23.396 35.3766 23.3325 35.3317 23.2782C35.2867 23.2238 35.2304 23.1801 35.1666 23.1501C35.1028 23.12 35.0332 23.1044 34.9627 23.1044H31.4627C31.3516 23.1043 31.2439 23.143 31.1581 23.2136C31.0723 23.2842 31.0137 23.3825 30.9924 23.4916L29.4415 31.4672C29.3221 30.6144 28.9599 29.8141 28.3981 29.1616C27.7725 28.5351 27.0178 28.0526 26.1867 27.7477C25.3555 27.4428 24.4678 27.3229 23.5856 27.3963H16.8437C16.7325 27.3962 16.6249 27.4348 16.5391 27.5055C16.4533 27.5761 16.3947 27.6744 16.3734 27.7834L13.2365 43.9272C13.2233 43.9964 13.2255 44.0677 13.2431 44.136C13.2606 44.2043 13.293 44.2678 13.3379 44.3222C13.3828 44.3765 13.4392 44.4202 13.5029 44.4503C13.5667 44.4803 13.6363 44.4959 13.7068 44.4959H17.2134C17.3245 44.496 17.4322 44.4574 17.518 44.3867C17.6038 44.3161 17.6624 44.2178 17.6837 44.1088L18.4427 40.2041H21.0677C22.2268 40.235 23.3836 40.0875 24.4977 39.7666C25.4371 39.4558 26.2962 38.9411 27.0134 38.2594C27.6011 37.724 28.1028 37.1013 28.5009 36.4131L27.8731 39.6397C27.8599 39.7089 27.8621 39.7802 27.8796 39.8485C27.8972 39.9168 27.9295 39.9803 27.9745 40.0347C28.0194 40.089 28.0757 40.1327 28.1395 40.1628C28.2033 40.1928 28.2729 40.2084 28.3434 40.2084H31.8434C31.9545 40.2085 32.0622 40.1699 32.148 40.0992C32.2338 40.0286 32.2924 39.9303 32.3137 39.8213L34.0352 30.9597H36.4284C37.4477 30.9597 37.7409 31.1631 37.8284 31.2506C37.9159 31.3381 38.0471 31.6116 37.8831 32.4953L36.494 39.6375C36.4808 39.7067 36.483 39.778 36.5006 39.8463C36.5181 39.9146 36.5505 39.9782 36.5954 40.0325C36.6403 40.0868 36.6967 40.1305 36.7604 40.1606C36.8242 40.1906 36.8938 40.2062 36.9643 40.2063H40.5081C40.6171 40.202 40.7214 40.1607 40.8037 40.0891C40.8861 40.0175 40.9415 39.9199 40.9609 39.8125V39.8125ZM24.7843 33.6131C24.6773 34.5315 24.2414 35.3801 23.5571 36.0019C22.6976 36.5365 21.6897 36.7825 20.6806 36.7041H19.1231L20.2496 30.905H22.2643C23.7452 30.905 24.3402 31.2222 24.5809 31.4869C24.7644 31.8063 24.8775 32.1613 24.9126 32.528C24.9477 32.8947 24.904 33.2647 24.7843 33.6131V33.6131Z" fill="white"/>
<path d="M55.8819 29.1637C55.2563 28.5373 54.5016 28.0548 53.6705 27.7499C52.8393 27.445 51.9516 27.3251 51.0694 27.3984H44.3078C44.1967 27.3984 44.089 27.437 44.0032 27.5076C43.9174 27.5783 43.8588 27.6766 43.8375 27.7856L40.7006 43.9294C40.6874 43.9986 40.6897 44.0699 40.7072 44.1382C40.7247 44.2065 40.7571 44.27 40.802 44.3244C40.8469 44.3787 40.9033 44.4224 40.9671 44.4525C41.0308 44.4825 41.1004 44.4981 41.1709 44.4981H44.6884C44.7996 44.4982 44.9072 44.4596 44.993 44.3889C45.0788 44.3183 45.1374 44.22 45.1587 44.1109L45.9178 40.2062H48.5428C49.7018 40.2372 50.8587 40.0896 51.9728 39.7687C52.9122 39.4579 53.7712 38.9433 54.4884 38.2616C55.7166 37.1547 56.5442 35.6726 56.8422 34.0462C57.0775 33.2143 57.1132 32.3385 56.9464 31.4901C56.7795 30.6417 56.4148 29.8446 55.8819 29.1637V29.1637ZM52.2353 33.6131C52.1283 34.5315 51.6924 35.3801 51.0081 36.0019C50.1465 36.5371 49.1361 36.7824 48.125 36.7019H46.5719L47.6984 30.9028H49.7131C51.194 30.9028 51.789 31.22 52.0297 31.4847C52.2139 31.8042 52.3276 32.1595 52.363 32.5266C52.3985 32.8938 52.3549 33.2642 52.2353 33.6131V33.6131Z" fill="white"/>
<path d="M22.2645 30.4238C22.7365 30.3643 23.2155 30.3991 23.674 30.526C24.1324 30.6529 24.5612 30.8695 24.9354 31.1631C25.1769 31.5349 25.3309 31.9566 25.3858 32.3965C25.4408 32.8364 25.3952 33.2831 25.2526 33.7028C25.1276 34.7364 24.6279 35.6882 23.8482 36.3781C22.9079 36.9838 21.7964 37.2678 20.6807 37.1875H18.5414L19.8539 30.4303L22.2645 30.4238ZM13.696 44.0213H17.2135L18.047 39.7294H21.0592C22.1679 39.7596 23.2747 39.6187 24.3404 39.3116C25.2151 39.0227 26.0146 38.543 26.681 37.9072C27.8346 36.8695 28.6116 35.4786 28.8904 33.9522C29.1112 33.1931 29.1499 32.3928 29.0036 31.6159C28.8573 30.8391 28.53 30.1077 28.0482 29.4809C27.4673 28.9064 26.7681 28.4654 25.9992 28.1889C25.2304 27.9123 24.4105 27.8068 23.5967 27.8797H16.8439L13.696 44.0213Z" fill="#000004"/>
<path d="M31.4715 23.5856H34.9715L34.125 27.8775H37.2334C38.6611 27.7281 40.0954 28.0909 41.2803 28.9012C41.6725 29.347 41.9405 29.888 42.0576 30.4701C42.1747 31.0521 42.1368 31.6548 41.9475 32.2175L40.4884 39.7294H36.9469L38.3359 32.5872C38.4327 32.3146 38.4672 32.0238 38.4369 31.7361C38.4066 31.4484 38.3123 31.1712 38.1609 30.9247C37.6544 30.5618 37.0287 30.4054 36.4109 30.4872H33.6219L31.8237 39.7359H28.3237L31.4715 23.5856Z" fill="#000004"/>
<path d="M49.7154 30.4238C50.1874 30.3643 50.6665 30.3991 51.1249 30.526C51.5834 30.6529 52.0121 30.8695 52.3863 31.1631C52.6278 31.5349 52.7818 31.9566 52.8368 32.3965C52.8917 32.8364 52.8462 33.2831 52.7035 33.7028C52.5785 34.7364 52.0788 35.6882 51.2992 36.3781C50.357 36.9852 49.2429 37.2693 48.1251 37.1875H45.9857L47.2982 30.4303L49.7154 30.4238ZM41.147 44.0213H44.6645L45.4979 39.7294H48.5101C49.6188 39.7596 50.7256 39.6187 51.7914 39.3116C52.666 39.0227 53.4655 38.543 54.132 37.9072C55.2855 36.8695 56.0625 35.4786 56.3413 33.9522C56.5621 33.1931 56.6009 32.3928 56.4546 31.6159C56.3082 30.8391 55.9809 30.1077 55.4992 29.4809C54.9183 28.9064 54.219 28.4654 53.4502 28.1889C52.6813 27.9123 51.8614 27.8068 51.0476 27.8797H44.2838L41.147 44.0213Z" fill="#000004"/>
<defs>
<radialGradient id="paint0_radial_28_37" cx="0" cy="0" r="1" gradientUnits="userSpaceOnUse" gradientTransform="translate(22.7631 24.5547) scale(40.215)">
<stop stop-color="white"/>
<stop offset="0.5" stop-color="#4C6B96"/>
<stop offset="1" stop-color="#231F20"/>
</radialGradient>
</defs>
</svg>
