<svg width="70" height="70" viewBox="0 0 70 70" fill="none" xmlns="http://www.w3.org/2000/svg">
<path d="M34.7484 4.59375C19.2172 4.59375 20.1994 11.3094 20.1994 11.3094V18.2875H34.9694V20.475H14.3172C14.3172 20.475 4.375 19.25 4.375 35.0109C4.375 50.7719 13.1534 50.1309 13.1534 50.1309H18.2219V42.7787C18.2219 42.7787 17.9375 34.0003 26.7531 34.0003H41.545C41.545 34.0003 49.7962 34.1316 49.7962 26.0116V12.6875C49.7962 12.6875 51.0475 4.5675 34.8294 4.5675L34.7484 4.59375ZM26.5847 9.26843C27.1098 9.25519 27.627 9.39795 28.0709 9.67867C28.5149 9.95939 28.8656 10.3655 29.0788 10.8455C29.2919 11.3256 29.358 11.8581 29.2685 12.3756C29.179 12.8932 28.938 13.3726 28.5761 13.7533C28.2141 14.1339 27.7474 14.3986 27.235 14.514C26.7225 14.6294 26.1874 14.5902 25.6973 14.4014C25.2071 14.2126 24.7839 13.8827 24.4813 13.4535C24.1786 13.0242 24.01 12.5148 23.9969 11.9897V11.9459C23.9969 11.2416 24.2767 10.5662 24.7747 10.0681C25.2727 9.5701 25.9482 9.29031 26.6525 9.29031L26.5847 9.26843Z" fill="url(#paint0_linear_28_90)"/>
<path d="M35.1858 65.4281C50.7171 65.4281 49.7349 58.6906 49.7349 58.6906V51.7344H34.9671V49.5469H55.6827C55.6827 49.5469 65.6249 50.6581 65.6249 34.9891C65.6249 19.32 56.8465 19.8691 56.8465 19.8691H51.7124V27.125C51.7124 27.125 51.9968 35.9034 43.1812 35.9034H28.3827C28.3827 35.9034 20.1249 35.7787 20.1249 43.8987V57.3125C20.1249 57.3125 18.8736 65.4325 35.0918 65.4325H35.1793L35.1858 65.4281ZM43.3496 60.7316C42.8245 60.7448 42.3073 60.602 41.8633 60.3213C41.4194 60.0406 41.0687 59.6345 40.8555 59.1545C40.6423 58.6744 40.5763 58.1419 40.6658 57.6244C40.7553 57.1068 40.9962 56.6274 41.3582 56.2467C41.7202 55.8661 42.1869 55.6014 42.6993 55.486C43.2117 55.3706 43.7469 55.4098 44.237 55.5986C44.7272 55.7874 45.1504 56.1172 45.453 56.5465C45.7557 56.9758 45.9243 57.4852 45.9374 58.0103V58.0759C45.9374 58.7802 45.6576 59.4557 45.1596 59.9537C44.6616 60.4518 43.9861 60.7316 43.2818 60.7316H43.3474H43.3496Z" fill="url(#paint1_linear_28_90)"/>
<defs>
<linearGradient id="paint0_linear_28_90" x1="10.4282" y1="10.5501" x2="39.4927" y2="39.5488" gradientUnits="userSpaceOnUse">
<stop stop-color="#387EB8"/>
<stop offset="1" stop-color="#366994"/>
</linearGradient>
<linearGradient id="paint1_linear_28_90" x1="27.6226" y1="29.4406" x2="60.8292" y2="58.4306" gradientUnits="userSpaceOnUse">
<stop stop-color="#FFE052"/>
<stop offset="1" stop-color="#FFC331"/>
</linearGradient>
</defs>
</svg>
