<svg width="70" height="70" viewBox="0 0 70 70" fill="none" xmlns="http://www.w3.org/2000/svg">
<path d="M35 40.4119C38.0203 40.4119 40.4688 37.9634 40.4688 34.9431C40.4688 31.9228 38.0203 29.4744 35 29.4744C31.9797 29.4744 29.5312 31.9228 29.5312 34.9431C29.5312 37.9634 31.9797 40.4119 35 40.4119Z" fill="#007ACC"/>
<path d="M35 47.4819C28.4269 47.6409 21.8702 46.7548 15.575 44.8569C12.667 43.935 9.95473 42.4829 7.57531 40.5737C6.66735 39.9216 5.91122 39.0807 5.35881 38.1088C4.8064 37.1368 4.47079 36.0569 4.375 34.9431C4.375 31.3272 8.3475 27.7834 15.0019 25.4647C21.4654 23.4101 28.2186 22.4143 35 22.5159C41.6909 22.4225 48.3537 23.4002 54.7356 25.4122C57.5363 26.305 60.1565 27.687 62.475 29.4941C63.3674 30.1158 64.1122 30.9263 64.6566 31.8679C65.201 32.8096 65.5316 33.8595 65.625 34.9431C65.625 38.7012 61.1844 42.5097 54.0313 44.8766C47.858 46.7127 41.4396 47.5913 35 47.4819V47.4819ZM35 25.1322C28.5121 25.0455 22.0518 25.9921 15.8616 27.9366C9.73656 30.0737 6.99125 32.9962 6.99125 34.9366C6.99125 36.9666 9.94219 40.1581 16.4216 42.3741C22.4439 44.1806 28.7145 45.0216 35 44.8656C41.1609 44.9758 47.3023 44.1422 53.2109 42.3937C59.9375 40.1647 63 36.9687 63 34.9431C62.8896 34.248 62.6363 33.5833 62.256 32.991C61.8757 32.3988 61.3768 31.8918 60.7906 31.5022C58.7163 29.8991 56.3756 28.6743 53.8759 27.8841C47.7707 25.9673 41.3984 25.0383 35 25.1322V25.1322Z" fill="#007ACC"/>
<path d="M22.5749 62.2191C21.5544 62.2425 20.546 61.9949 19.6524 61.5016C16.5199 59.6947 15.4349 54.4841 16.7496 47.5606C18.1991 40.9349 20.7107 34.5872 24.1871 28.7634C27.448 22.9209 31.6228 17.6376 36.553 13.1141C38.7255 11.1337 41.2318 9.554 43.9555 8.44813C44.9407 7.98643 46.0153 7.7471 47.1033 7.7471C48.1913 7.7471 49.266 7.98643 50.2511 8.44813C53.5083 10.325 54.5868 16.0737 53.0664 23.4522C51.5721 29.7184 49.1258 35.7185 45.8127 41.2431C42.6665 47.0167 38.6232 52.2539 33.8339 56.7591C31.5825 58.817 28.9697 60.4405 26.1274 61.5475C24.9895 61.9698 23.7884 62.1969 22.5749 62.2191V62.2191ZM26.4533 30.0628C23.1373 35.6395 20.7301 41.7084 19.3221 48.0419C18.1124 54.4184 19.2739 58.2531 20.9627 59.2287C22.7127 60.2416 26.9608 59.2812 32.1189 54.775C36.6909 50.459 40.5501 45.4458 43.553 39.9219C46.7269 34.6402 49.0736 28.9037 50.5114 22.9119C51.9421 15.9666 50.7061 11.7141 48.9518 10.7034C48.2942 10.4515 47.5916 10.3387 46.8882 10.3722C46.1849 10.4057 45.4961 10.5848 44.8655 10.8981C42.4411 11.8986 40.2121 13.3189 38.2811 15.0937C33.5707 19.4267 29.5829 24.4845 26.4686 30.0759L26.4533 30.0628Z" fill="#007ACC"/>
<path d="M47.4184 62.2475C44.4543 62.2475 40.6896 60.4537 36.7696 57.0828C31.753 52.5181 27.5077 47.1721 24.198 41.2519C20.7653 35.5083 18.2736 29.2524 16.8174 22.7216C16.1859 19.8483 16.0689 16.8857 16.4718 13.9716C16.5649 12.8905 16.8941 11.8431 17.4361 10.9031C17.9781 9.96308 18.7197 9.15345 19.6087 8.53125C22.8615 6.64781 28.3805 8.58375 34.0134 13.5844C38.6959 18.0079 42.6723 23.1234 45.804 28.7525C49.2346 34.362 51.7525 40.4808 53.2634 46.8803C53.922 49.859 54.0237 52.934 53.563 55.9497C53.4535 57.0618 53.1046 58.1371 52.5405 59.1018C51.9764 60.0665 51.2104 60.8978 50.2949 61.5387C49.4159 62.026 48.4231 62.2706 47.4184 62.2475V62.2475ZM26.4621 39.935C29.6371 45.5928 33.6924 50.7092 38.4759 55.0922C43.3955 59.325 47.298 60.235 48.9759 59.2484C50.7259 58.2312 52.0165 54.0794 50.6865 47.3616C49.2293 41.2517 46.8144 35.411 43.5312 30.0562C40.5427 24.6687 36.7472 19.7703 32.2765 15.5312C26.974 10.8237 22.6734 9.77156 20.9212 10.7866C20.375 11.2304 19.9269 11.7826 19.605 12.4083C19.283 13.0341 19.0944 13.7198 19.0509 14.4222C18.7031 17.0211 18.8164 19.661 19.3855 22.2206C20.7862 28.4662 23.1759 34.4479 26.4643 39.9394L26.4621 39.935Z" fill="#007ACC"/>
</svg>
