<svg width="70" height="70" viewBox="0 0 70 70" fill="none" xmlns="http://www.w3.org/2000/svg">
<g opacity="0.7">
<path d="M18.7295 33.3725C23.9533 35.2086 29.4641 36.0925 35.0001 35.9822C40.5362 36.0918 46.0471 35.2072 51.2707 33.3703C55.3482 31.78 56.7942 30.0125 56.7942 28.9953V21.2188C55.3686 22.1734 53.8392 22.9631 52.2354 23.5725C46.7086 25.5515 40.8698 26.5164 35.0001 26.4206C29.1309 26.5146 23.2927 25.5513 17.7648 23.5769C16.1602 22.9674 14.6307 22.1762 13.2061 21.2188V28.9844C13.2061 30.0213 14.6564 31.78 18.7295 33.3725Z" fill="#F6AD00"/>
<path d="M18.7295 48.0397C20.5749 48.7435 22.4778 49.2858 24.417 49.6606C27.904 50.3352 31.4485 50.6671 35.0001 50.6516C38.5516 50.6678 42.0962 50.3366 45.5832 49.6628C47.5224 49.288 49.4253 48.7456 51.2707 48.0419C55.3482 46.4516 56.7942 44.6841 56.7942 43.6669V36.2513C55.6158 36.9603 54.3773 37.5642 53.0929 38.0559C47.2868 40.1117 41.1584 41.1068 35.0001 40.9937C28.8412 41.1033 22.7127 40.1044 16.9073 38.045C15.6235 37.552 14.3851 36.9482 13.2061 36.2403V43.6625C13.2061 44.6819 14.6564 46.4428 18.7295 48.0397V48.0397Z" fill="#F6AD00"/>
<path d="M35.0001 65.625C47.0314 65.625 56.7942 61.81 56.7942 57.1069V50.9009C55.7222 51.5471 54.5992 52.1046 53.4364 52.5678L53.0929 52.7056C47.2879 54.7674 41.1595 55.7685 35.0001 55.6609C28.8405 55.7716 22.7115 54.7705 16.9073 52.7056C16.7892 52.6619 16.6754 52.6116 16.5639 52.5678C15.401 52.1046 14.278 51.5471 13.2061 50.9009V57.1069C13.2061 61.81 22.9689 65.625 35.0001 65.625Z" fill="#F6AD00"/>
<path d="M35.0001 21.4113C47.0366 21.4113 56.7942 17.5976 56.7942 12.8931C56.7942 8.18869 47.0366 4.375 35.0001 4.375C22.9636 4.375 13.2061 8.18869 13.2061 12.8931C13.2061 17.5976 22.9636 21.4113 35.0001 21.4113Z" fill="#F6AD00"/>
</g>
</svg>
