<svg width="70" height="70" viewBox="0 0 70 70" fill="none" xmlns="http://www.w3.org/2000/svg">
<path d="M42.4856 8.76531C42.4856 8.76531 56.0853 16.5397 59.6444 28.8903C62.8513 40.0466 60.2831 45.3709 60.2831 45.3709C61.9232 47.1579 63.2155 49.2351 64.0937 51.4959C64.9759 52.9486 65.4943 54.5927 65.6047 56.2887C65.7152 57.9846 65.4144 59.6821 64.7281 61.2369C64.7281 61.2369 64.5094 56.6869 57.7281 55.7441C51.5134 54.8691 49.2538 60.9197 37.3844 60.6266C30.8079 60.5012 24.3618 58.7691 18.6083 55.5812C12.8547 52.3933 7.96827 47.8464 4.375 42.3369C10.1741 45.5 17.7713 50.4109 27.2322 49.6563C36.6931 48.9016 38.6684 45.9944 38.6684 45.9944C28.0339 37.579 18.6207 27.7263 10.6991 16.7191C18.1366 22.9425 36.5597 35.3281 36.1309 35.0131C29.3921 28.4284 23.2266 21.2815 17.7013 13.65C17.7013 13.65 45.3425 36.3759 47.5672 36.2316C48.4816 34.3481 53.2087 24.5984 42.4834 8.76313L42.4856 8.76531Z" fill="url(#paint0_linear_28_55)"/>
<defs>
<linearGradient id="paint0_linear_28_55" x1="35.9625" y1="29.7653" x2="34.8061" y2="61.2632" gradientUnits="userSpaceOnUse">
<stop stop-color="#F88535"/>
<stop offset="1" stop-color="#FD2221"/>
</linearGradient>
</defs>
</svg>
