<svg width="70" height="70" viewBox="0 0 70 70" fill="none" xmlns="http://www.w3.org/2000/svg">
<path d="M62.755 4.375H7.245C5.65994 4.375 4.375 5.65994 4.375 7.245V62.755C4.375 64.3401 5.65994 65.625 7.245 65.625H62.755C64.3401 65.625 65.625 64.3401 65.625 62.755V7.245C65.625 5.65994 64.3401 4.375 62.755 4.375Z" fill="#3178C6"/>
<path fill-rule="evenodd" clip-rule="evenodd" d="M39.9108 51.9728V58.6841C41.1302 59.2859 42.4297 59.7095 43.7696 59.9419C45.3179 60.2277 46.8895 60.3683 48.4639 60.3619C49.9984 60.3692 51.5294 60.2145 53.0314 59.9003C54.38 59.6278 55.6667 59.1087 56.8268 58.3691C57.9037 57.6739 58.7914 56.7223 59.4102 55.5997C60.5184 53.2751 60.6646 50.6071 59.8171 48.1753C59.4594 47.2659 58.9265 46.4357 58.2486 45.7319C57.521 44.9834 56.6945 44.338 55.7921 43.8134C54.7531 43.2049 53.6736 42.6685 52.5611 42.2078C51.6861 41.8447 50.8986 41.4918 50.1986 41.1491C49.5769 40.8514 48.9819 40.5008 48.4202 40.1013C47.9803 39.7928 47.5982 39.4093 47.2914 38.9681C47.0265 38.5676 46.8885 38.0964 46.8955 37.6163C46.8897 37.1743 47.0128 36.7402 47.2499 36.3672C47.5074 35.9768 47.8508 35.6505 48.2539 35.4134C48.7467 35.1233 49.2829 34.9143 49.8421 34.7944C50.5285 34.6419 51.2302 34.5685 51.9333 34.5756C52.5247 34.5777 53.1152 34.6201 53.7008 34.7025C54.3332 34.788 54.9589 34.9174 55.5733 35.0897C56.1983 35.2629 56.8096 35.4823 57.4021 35.7459C57.977 36.0022 58.527 36.3113 59.0449 36.6691V30.4063C57.9667 29.9983 56.8485 29.7051 55.7089 29.5313C54.3328 29.331 52.9433 29.2367 51.5527 29.2491C50.0326 29.2409 48.517 29.4134 47.0377 29.7631C45.7006 30.0687 44.4292 30.6118 43.2839 31.3666C42.2201 32.0752 41.3417 33.0287 40.7224 34.1469C40.0661 35.3887 39.7413 36.7788 39.7796 38.1828C39.7311 40.0395 40.3427 41.8533 41.5055 43.3016C42.9322 44.9074 44.7311 46.1385 46.7446 46.8869C47.6633 47.266 48.5201 47.6372 49.3149 48.0003C50.032 48.3194 50.7212 48.6977 51.3755 49.1313C51.9032 49.4745 52.3667 49.9077 52.7449 50.4109C53.0774 50.8674 53.2539 51.419 53.248 51.9838C53.251 52.4069 53.1424 52.8235 52.933 53.1913C52.7004 53.5865 52.3735 53.9179 51.9814 54.1559C51.4909 54.455 50.9543 54.6708 50.3933 54.7947C49.6626 54.9581 48.9152 55.0352 48.1664 55.0244C46.6971 55.0217 45.2395 54.7626 43.8593 54.2588C42.4173 53.7384 41.0801 52.9642 39.9108 51.9728ZM28.6364 35.2647H37.3864V29.7369H12.9893V35.2647H21.6999V59.8828H28.6364V35.2647Z" fill="white"/>
</svg>
